<?xml version="1.0" standalone="no"?>
<!DOCTYPE svg PUBLIC "-//W3C//DTD SVG 20010904//EN"
 "http://www.w3.org/TR/2001/REC-SVG-20010904/DTD/svg10.dtd">
<svg version="1.0" xmlns="http://www.w3.org/2000/svg"
 width="700.000000pt" height="700.000000pt" viewBox="0 0 700.000000 700.000000"
 preserveAspectRatio="xMidYMid meet">
<metadata>
Created by potrace 1.11, written by Peter Selinger 2001-2013
</metadata>
<g transform="translate(0.000000,700.000000) scale(0.100000,-0.100000)"
fill="#000000" stroke="none">
<path d="M3427 6975 c-1 -1 -54 -5 -117 -9 -63 -3 -128 -8 -145 -10 -16 -2
-54 -7 -83 -10 -29 -4 -76 -11 -105 -17 -28 -5 -68 -12 -87 -15 -19 -3 -102
-23 -185 -44 -824 -210 -1452 -749 -1610 -1380 -31 -123 -36 -160 -40 -305
-16 -509 285 -1004 803 -1319 210 -128 536 -258 731 -291 19 -3 37 -8 40 -10
7 -4 172 -31 236 -39 139 -17 405 -27 405 -16 0 5 -105 32 -215 56 -72 15
-309 92 -372 120 -17 8 -34 14 -37 14 -6 0 -91 38 -195 87 -397 189 -734 491
-890 800 -78 156 -112 290 -117 458 -3 140 5 201 45 325 109 334 381 618 791
826 64 33 129 64 145 71 106 43 309 110 396 129 45 10 56 12 94 22 22 6 58 13
80 17 22 3 47 7 55 10 8 2 40 6 71 10 31 3 67 8 79 10 37 7 268 19 370 19 89
0 289 -11 328 -18 9 -2 44 -7 77 -11 86 -12 84 -11 155 -24 376 -69 743 -226
1025 -439 67 -51 223 -204 276 -272 107 -135 202 -344 224 -495 11 -67 11
-267 1 -335 -10 -74 -67 -243 -110 -327 -19 -37 -59 -106 -89 -153 l-54 -84
69 -121 c38 -66 74 -129 80 -140 6 -11 27 -47 46 -80 19 -33 46 -78 58 -101
l24 -41 -88 24 c-91 24 -102 27 -167 42 -22 5 -96 23 -164 40 -68 17 -126 30
-128 28 -2 -3 20 -16 49 -29 29 -14 103 -49 163 -78 61 -29 133 -63 160 -76
144 -69 460 -211 463 -208 4 3 -11 40 -174 451 l-104 261 66 94 c76 108 165
282 195 383 45 155 58 252 54 420 -1 88 -6 174 -9 190 -28 126 -40 167 -72
253 -115 310 -369 621 -684 840 -279 193 -710 372 -1029 427 -19 3 -37 8 -41
10 -3 2 -29 7 -56 10 -27 4 -56 8 -64 10 -19 5 -164 23 -255 31 -67 6 -362 13
-368 9z"/>
<path d="M3781 3486 c4 -4 19 -9 34 -12 15 -3 89 -20 164 -40 518 -132 955
-361 1251 -656 50 -50 143 -156 154 -176 5 -10 13 -19 17 -22 12 -8 104 -162
128 -215 161 -347 133 -697 -83 -1019 -103 -153 -278 -322 -446 -429 -244
-155 -563 -286 -819 -337 -25 -5 -57 -12 -71 -15 -36 -8 -187 -33 -240 -40
-195 -25 -604 -25 -765 0 -149 23 -240 39 -295 52 -36 8 -72 16 -81 18 -166
33 -539 187 -703 289 -19 12 -46 3 -261 -89 -132 -57 -241 -102 -243 -100 -2
2 108 292 138 363 9 21 4 30 -42 79 -29 31 -58 61 -64 67 -126 134 -269 425
-298 611 -4 21 -9 41 -11 44 -10 9 -9 -183 0 -249 4 -25 9 -58 11 -73 12 -97
83 -287 153 -408 l42 -72 -80 -136 c-43 -75 -156 -270 -250 -435 -171 -298
-171 -299 -139 -292 47 10 55 12 133 36 116 36 164 50 235 69 25 6 56 16 70
21 14 5 57 18 95 29 39 11 155 45 259 76 l189 56 38 -26 c21 -14 41 -25 45
-25 3 0 18 -8 32 -19 48 -33 248 -130 364 -175 110 -43 321 -111 376 -121 15
-2 81 -16 147 -29 67 -14 152 -28 190 -31 38 -4 78 -9 90 -11 79 -17 431 -23
585 -11 200 17 278 28 464 69 237 51 436 119 645 221 705 342 1125 925 1106
1537 -5 149 -6 159 -24 245 -81 386 -346 750 -721 993 -173 112 -406 221 -600
279 -114 34 -330 81 -408 88 -35 4 -73 9 -85 12 -34 8 -433 16 -426 9z"/>
</g>
</svg>
