<?xml version="1.0" encoding="UTF-8" standalone="no"?>
<svg
   xmlns:dc="http://purl.org/dc/elements/1.1/"
   xmlns:cc="http://creativecommons.org/ns#"
   xmlns:rdf="http://www.w3.org/1999/02/22-rdf-syntax-ns#"
   xmlns:svg="http://www.w3.org/2000/svg"
   xmlns="http://www.w3.org/2000/svg"
   xmlns:sodipodi="http://sodipodi.sourceforge.net/DTD/sodipodi-0.dtd"
   xmlns:inkscape="http://www.inkscape.org/namespaces/inkscape"
   version="1.1"
   x="0px"
   y="0px"
   viewBox="0 0 100 100"
   id="svg10"
   sodipodi:docname="exchange.svg"
   width="100"
   height="100"
   inkscape:version="0.92+devel unknown">
  <metadata
     id="metadata16">
    <rdf:RDF>
      <cc:Work
         rdf:about="">
        <dc:format>image/svg+xml</dc:format>
        <dc:type
           rdf:resource="http://purl.org/dc/dcmitype/StillImage" />
        <dc:title />
      </cc:Work>
    </rdf:RDF>
  </metadata>
  <defs
     id="defs14" />
  <sodipodi:namedview
     pagecolor="#ffffff"
     bordercolor="#666666"
     inkscape:document-rotation="0"
     borderopacity="1"
     objecttolerance="10"
     gridtolerance="10"
     guidetolerance="10"
     inkscape:pageopacity="0"
     inkscape:pageshadow="2"
     inkscape:window-width="1366"
     inkscape:window-height="717"
     id="namedview12"
     showgrid="false"
     inkscape:zoom="4.304"
     inkscape:cx="-29.693308"
     inkscape:cy="53.20632"
     inkscape:window-x="0"
     inkscape:window-y="0"
     inkscape:window-maximized="1"
     inkscape:current-layer="svg10" />
  <g
     transform="matrix(1.1356223,0,0,1.1356223,-6.781115,-1088.3048)"
     id="g4"
     style="fill:#fc895c;fill-opacity:1;opacity:1">
    <path
       style="color:#000000;font-style:normal;font-variant:normal;font-weight:normal;font-stretch:normal;font-size:medium;line-height:normal;font-family:Sans;-inkscape-font-specification:Sans;text-indent:0;text-align:start;text-decoration:none;text-decoration-line:none;letter-spacing:normal;word-spacing:normal;text-transform:none;writing-mode:lr-tb;direction:ltr;baseline-shift:baseline;text-anchor:start;display:inline;overflow:visible;visibility:visible;opacity:1;fill:#fc895c;fill-opacity:1;stroke:none;stroke-width:4;marker:none;enable-background:accumulate"
       d="m 74,11 c -1.104569,0 -2,0.895431 -2,2 0,0.498863 0.197884,0.963204 0.5,1.3125 C 72.72049,14.567423 86.96875,28 86.96875,28 H 8 c -1.1045695,0 -2,0.895431 -2,2 0,1.10457 0.8954305,2 2,2 H 86.96875 C 86.96875,32 72.72049,45.43258 72.5,45.6875 72.197884,46.0368 72,46.50112 72,47 c 0,1.1045 0.895431,2 2,2 0.510453,0 0.990358,-0.1852 1.34375,-0.5 C 75.755064,48.1337 92,32.75 92,32.75 c 0,0 1.283398,-1.22026 1.40625,-1.34375 C 93.766033,31.04461 94,30.55043 94,30 94,29.449575 93.766033,28.955386 93.40625,28.59375 93.283398,28.470264 92,27.25 92,27.25 92,27.25 75.755064,11.866313 75.34375,11.5 74.990358,11.185272 74.510453,11 74,11 Z M 26,51 c -0.510453,0 -0.990358,0.1852 -1.34375,0.5 C 24.244936,51.8663 8,67.25 8,67.25 8,67.25 6.716602,68.47025 6.59375,68.59375 6.233967,68.95545 6,69.4496 6,70 6,70.5504 6.233967,71.04465 6.59375,71.40625 6.716602,71.52975 8,72.75 8,72.75 8,72.75 24.244936,88.1337 24.65625,88.5 25.009642,88.8147 25.489547,89 26,89 c 1.104569,0 2,-0.8955 2,-2 0,-0.4989 -0.197884,-0.9632 -0.5,-1.3125 C 27.27951,85.4326 13.03125,72 13.03125,72 H 92 c 1.104569,0 2,-0.8954 2,-2 0,-1.1046 -0.895431,-2 -2,-2 H 13.03125 C 13.03125,68 27.27951,54.5674 27.5,54.3125 27.802116,53.9632 28,53.4989 28,53 28,51.8955 27.104569,51 26,51 Z"
       transform="translate(0,952.36218)"
       id="path2"
       inkscape:connector-curvature="0" />
  </g>
</svg>
