<?xml version="1.0" encoding="UTF-8" standalone="no"?>
<svg
   xmlns:dc="http://purl.org/dc/elements/1.1/"
   xmlns:cc="http://creativecommons.org/ns#"
   xmlns:rdf="http://www.w3.org/1999/02/22-rdf-syntax-ns#"
   xmlns:svg="http://www.w3.org/2000/svg"
   xmlns="http://www.w3.org/2000/svg"
   xmlns:sodipodi="http://sodipodi.sourceforge.net/DTD/sodipodi-0.dtd"
   xmlns:inkscape="http://www.inkscape.org/namespaces/inkscape"
   viewBox="0 0 69.4 68.67"
   version="1.1"
   id="svg16"
   sodipodi:docname="stars.svg"
   inkscape:version="0.92+devel unknown">
  <metadata
     id="metadata20">
    <rdf:RDF>
      <cc:Work
         rdf:about="">
        <dc:format>image/svg+xml</dc:format>
        <dc:type
           rdf:resource="http://purl.org/dc/dcmitype/StillImage" />
      </cc:Work>
    </rdf:RDF>
  </metadata>
  <sodipodi:namedview
     pagecolor="#ffffff"
     bordercolor="#666666"
     inkscape:document-rotation="0"
     borderopacity="1"
     objecttolerance="10"
     gridtolerance="10"
     guidetolerance="10"
     inkscape:pageopacity="0"
     inkscape:pageshadow="2"
     inkscape:window-width="1366"
     inkscape:window-height="717"
     id="namedview18"
     showgrid="false"
     inkscape:zoom="7.8345713"
     inkscape:cx="12.809843"
     inkscape:cy="34.334999"
     inkscape:window-x="0"
     inkscape:window-y="0"
     inkscape:window-maximized="1"
     inkscape:current-layer="svg16" />
  <defs
     id="defs4">
    <style
       id="style2">.cls-1{fill:#bc9153;}</style>
  </defs>
  <title
     id="title6">stars</title>
  <g
     id="Layer_2"
     data-name="Layer 2"
     style="fill:#fc895c;fill-opacity:1">
    <g
       id="_1"
       data-name=" 1"
       style="fill:#fc895c;fill-opacity:1">
      <path
         class="cls-1"
         d="M30.49,22.33c.54-1.65,1.42-1.65,2,0l4.34,13.35a4.65,4.65,0,0,0,4.14,3H55c1.74,0,2,.84.6,1.86L44.2,48.79a4.64,4.64,0,0,0-1.58,4.86L47,67c.54,1.65-.17,2.17-1.58,1.15L34,59.9a4.65,4.65,0,0,0-5.11,0L17.56,68.15c-1.41,1-2.12.5-1.58-1.15l4.34-13.35a4.64,4.64,0,0,0-1.58-4.86L7.38,40.54c-1.41-1-1.13-1.86.6-1.86H22a4.65,4.65,0,0,0,4.14-3Z"
         id="path8"
         style="fill:#fc895c;fill-opacity:1" />
      <path
         class="cls-1"
         d="M53.86.74c.32-1,.85-1,1.17,0l2.6,8a2.78,2.78,0,0,0,2.48,1.8h8.4c1,0,1.2.5.36,1.11l-6.8,4.94a2.78,2.78,0,0,0-.95,2.91l2.6,8c.32,1-.1,1.3-.95.69L56,23.23a2.78,2.78,0,0,0-3.06,0l-6.8,4.94c-.84.61-1.27.3-.95-.69l2.6-8a2.78,2.78,0,0,0-.94-2.91L40,11.64c-.84-.61-.68-1.11.36-1.11h8.4a2.78,2.78,0,0,0,2.48-1.8Z"
         id="path10"
         style="fill:#fc895c;fill-opacity:1" />
      <path
         class="cls-1"
         d="M10.19,8.82c.23-.7.6-.7.83,0l1.84,5.66a2,2,0,0,0,1.75,1.27h6c.74,0,.85.35.26.79L16,20a2,2,0,0,0-.67,2.06l1.84,5.66c.23.7-.07.92-.67.49l-4.82-3.5a2,2,0,0,0-2.17,0L4.7,28.26c-.6.43-.9.21-.67-.49l1.84-5.66A2,2,0,0,0,5.2,20L.38,16.55c-.6-.43-.48-.79.26-.79h6a2,2,0,0,0,1.76-1.27Z"
         id="path12"
         style="fill:#fc895c;fill-opacity:1" />
    </g>
  </g>
</svg>
