<?xml version="1.0" encoding="UTF-8" standalone="no"?>
<svg
   xmlns:dc="http://purl.org/dc/elements/1.1/"
   xmlns:cc="http://creativecommons.org/ns#"
   xmlns:rdf="http://www.w3.org/1999/02/22-rdf-syntax-ns#"
   xmlns:svg="http://www.w3.org/2000/svg"
   xmlns="http://www.w3.org/2000/svg"
   xmlns:sodipodi="http://sodipodi.sourceforge.net/DTD/sodipodi-0.dtd"
   xmlns:inkscape="http://www.inkscape.org/namespaces/inkscape"
   viewBox="0 0 54.78 58.14"
   version="1.1"
   id="svg18"
   sodipodi:docname="wallet.svg"
   inkscape:version="0.92+devel unknown">
  <metadata
     id="metadata22">
    <rdf:RDF>
      <cc:Work
         rdf:about="">
        <dc:format>image/svg+xml</dc:format>
        <dc:type
           rdf:resource="http://purl.org/dc/dcmitype/StillImage" />
      </cc:Work>
    </rdf:RDF>
  </metadata>
  <sodipodi:namedview
     pagecolor="#ffffff"
     bordercolor="#666666"
     inkscape:document-rotation="0"
     borderopacity="1"
     objecttolerance="10"
     gridtolerance="10"
     guidetolerance="10"
     inkscape:pageopacity="0"
     inkscape:pageshadow="2"
     inkscape:window-width="1366"
     inkscape:window-height="717"
     id="namedview20"
     showgrid="false"
     inkscape:zoom="9.2535261"
     inkscape:cx="8.8565234"
     inkscape:cy="29.07"
     inkscape:window-x="0"
     inkscape:window-y="0"
     inkscape:window-maximized="1"
     inkscape:current-layer="svg18" />
  <defs
     id="defs4">
    <style
       id="style2">.cls-1{fill:#bc9153;}</style>
  </defs>
  <title
     id="title6">wallet</title>
  <g
     id="Layer_2"
     data-name="Layer 2"
     style="fill:#fc895c;fill-opacity:1">
    <g
       id="_1"
       data-name=" 1"
       style="fill:#fc895c;fill-opacity:1">
      <path
         class="cls-1"
         d="M35.89,1.78a4.32,4.32,0,0,0-6-1L18,9.45,36.83,3.08Z"
         id="path8"
         style="fill:#fc895c;fill-opacity:1" />
      <path
         class="cls-1"
         d="M44.16,8.42A4.3,4.3,0,0,0,38.73,5.7h0L24.1,10.63H44.91Z"
         id="path10"
         style="fill:#fc895c;fill-opacity:1" />
      <path
         class="cls-1"
         d="M44.3,45.35a10.11,10.11,0,0,1,0-20.23h3.45a10.08,10.08,0,0,1,2.85.42V18c0-.08,0-.16,0-.24a4.32,4.32,0,0,0-4.31-4.08h-42A4.33,4.33,0,0,0,.1,17.1,4.36,4.36,0,0,0,0,18V53.82a4.32,4.32,0,0,0,4.29,4.32h42a4.32,4.32,0,0,0,4.32-4.32V44.94a10.08,10.08,0,0,1-2.85.41Z"
         id="path12"
         style="fill:#fc895c;fill-opacity:1" />
      <path
         class="cls-1"
         d="M50.59,28.82a7,7,0,0,0-2.85-.61H44.3a7,7,0,1,0,0,14.05h3.45a7,7,0,0,0,2.85-13.45ZM46,38.29a3.05,3.05,0,1,1,3.05-3.05A3.05,3.05,0,0,1,46,38.29Z"
         id="path14"
         style="fill:#fc895c;fill-opacity:1" />
    </g>
  </g>
</svg>
