<?xml version="1.0" encoding="utf-8"?>
<!-- Generator: Adobe Illustrator 16.0.0, SVG Export Plug-In . SVG Version: 6.00 Build 0)  -->
<!DOCTYPE svg PUBLIC "-//W3C//DTD SVG 1.1//EN" "http://www.w3.org/Graphics/SVG/1.1/DTD/svg11.dtd">
<svg version="1.1" id="Layer_1" xmlns="http://www.w3.org/2000/svg" xmlns:xlink="http://www.w3.org/1999/xlink" x="0px" y="0px"
	 width="678.104px" height="135.41px" viewBox="0 0 678.104 135.41" enable-background="new 0 0 678.104 135.41"
	 xml:space="preserve">
<g>
	<path d="M19.149,94.985c1.417-2.328,3.268-5.294,5.547-8.891c2.279-3.594,5.09-8.18,8.435-13.753
		c1.417-2.33,2.659-4.355,3.723-6.08c1.065-1.722,1.848-3.04,2.356-3.95c1.52-2.33,2.735-4.257,3.647-5.775
		c0.912-1.52,1.596-2.862,2.052-4.027c0.457-1.165,0.76-2.179,0.912-3.04c0.152-0.86,0.328-1.749,0.532-2.659v-0.304
		c0.203-1.316,0.457-2.531,0.761-3.648c0.304-1.113,0.607-2.177,0.912-3.191c2.633-3.24,4.762-5.444,6.383-6.611
		c1.619-1.163,3.04-1.747,4.256-1.747c0.912,0.203,1.748,0.683,2.507,1.445c0.761,0.759,1.19,1.393,1.292,1.899
		c-0.71,2.938-1.368,5.496-1.976,7.673c-0.607,2.182-1.42,4.331-2.432,6.461c-1.014,2.127-2.179,4.356-3.495,6.687
		c-1.318,2.332-3.192,5.572-5.624,9.726c-0.406,0.71-0.964,1.596-1.671,2.659c-0.71,1.063-1.572,2.306-2.584,3.726l-0.608,0.91
		c-1.42,2.127-2.736,4.104-3.952,5.927c-1.215,1.825-2.381,3.599-3.495,5.32l-0.607,0.91c-1.014,1.623-2.078,3.295-3.192,5.017
		c-1.116,1.724-2.23,3.547-3.343,5.472c-1.318,2.028-2.561,4.078-3.724,6.154c-1.167,2.077-2.305,4.128-3.42,6.154l-0.303,0.762
		c-2.028,3.851-3.344,6.532-3.952,8.054c0,0.71,1.113,1.063,3.343,1.063c1.417,0,2.987-0.15,4.711-0.455
		c1.721-0.305,3.291-0.812,4.712-1.521c0.809-0.2,1.999-0.43,3.571-0.683c1.569-0.252,3.368-0.531,5.396-0.836
		c1.519-0.203,2.785-0.354,3.799-0.455c1.01-0.102,1.722-0.203,2.127-0.305c7.294-1.521,12.865-2.28,16.717-2.28
		c0.202,0,0.708-0.15,1.519-0.455c1.114-0.507,2.356-0.886,3.724-1.141c1.368-0.252,3.165-0.381,5.395-0.381
		c1.216,0,2.356-0.074,3.42-0.228c1.063-0.15,2.152-0.326,3.268-0.531c0.81-0.201,1.265-0.305,1.368-0.305
		c0.506,0,0.912,0.205,1.216,0.608c0.607,0.608,0.912,1.217,0.912,1.823c0,0.813-0.482,1.801-1.443,2.963
		c-0.965,1.168-2.812,3.219-5.547,6.157l-1.52,1.519c-1.825,0-3.8,0.077-5.927,0.228c-2.128,0.153-4.358,0.433-6.688,0.836
		l-1.976,0.455c-4.255,0-8.738,0.332-13.449,0.99c-4.712,0.66-10.36,1.646-16.946,2.963c-1.013,0.203-2.685,0.66-5.015,1.368
		c-2.331,0.71-5.167,1.622-8.51,2.735c-6.789,2.127-11.246,3.698-13.374,4.71c-0.813,0.203-1.318,0.304-1.52,0.304
		C0.457,135.41,0,134.7,0,133.283c0-1.115,0.251-2.127,0.759-3.04l0.457-1.063c1.012-2.432,1.975-4.71,2.888-6.84
		c0.912-2.127,1.874-4.354,2.887-6.686c1.114-2.432,2.103-4.482,2.965-6.154c0.859-1.672,1.543-2.964,2.05-3.876
		c0.304-0.505,1.039-1.62,2.204-3.345c1.164-1.722,2.759-4.049,4.788-6.99C18.997,95.089,19.046,94.985,19.149,94.985z"/>
	<path d="M129.331,75.533c1.722-1.113,3.621-2.103,5.699-2.964c2.075-0.86,3.975-1.291,5.699-1.291c1.216,0,2.127,0.305,2.736,0.91
		c1.823,1.115,2.735,3.8,2.735,8.057c0,0.507-0.026,1.039-0.076,1.596c-0.052,0.557-0.128,1.088-0.228,1.595v0.455
		c0.099,1.318,0.708,1.977,1.823,1.977c0.81,0,1.672-0.202,2.583-0.608c-0.102,0.51-0.204,1.217-0.304,2.127
		c-0.102,0.913-0.204,2.078-0.303,3.495c-0.103,1.623-0.229,2.964-0.379,4.03c-0.152,1.063-0.331,1.899-0.533,2.506
		c-0.507,1.217-1.242,2.787-2.203,4.712c-0.965,1.927-2.307,4.205-4.028,6.839c-2.027,3.04-3.597,5.573-4.711,7.599
		c-1.116,2.028-1.773,4.104-1.975,6.231c0.303-0.203,0.708-0.431,1.216-0.686c0.506-0.25,1.113-0.581,1.823-0.986
		c1.824-1.218,3.04-1.823,3.647-1.823h0.304l0.152-0.153c0.506,0,0.759,0.304,0.759,0.913c0,1.115-0.406,2.431-1.216,3.95
		c-0.508,0.304-1.013,0.66-1.519,1.063c-0.509,0.408-1.014,0.912-1.52,1.521c-1.117,1.115-2.181,1.924-3.192,2.431h-0.455
		c-1.421,0.609-2.281,1.165-2.583,1.673c-0.204,0.304-0.862,0.455-1.977,0.455c-0.607,0-1.192-0.025-1.748-0.077
		c-0.558-0.049-1.09-0.126-1.596-0.228h-0.304c-1.215-0.403-1.823-1.113-1.823-2.127c0-0.305,0.023-0.608,0.075-0.913
		c0.05-0.304,0.176-0.658,0.38-1.063c0.404-0.707,0.962-1.949,1.672-3.723c0.708-1.771,1.467-3.824,2.28-6.154
		c0.608-1.62,1.087-2.938,1.443-3.953c0.355-1.012,0.632-1.672,0.836-1.976l0.152-0.151c0.506-1.012,0.761-1.977,0.761-2.887
		l-0.152-0.457v-0.911c-0.204,0.812-0.787,1.596-1.748,2.355c-0.965,0.759-2.028,1.469-3.192,2.127
		c-1.166,0.66-2.305,1.192-3.42,1.596c-1.115,0.405-1.876,0.608-2.279,0.608c-0.911,0-2.153,0.608-3.723,1.823
		c-1.573,1.217-3.218,2.889-4.939,5.017l-0.609,0.608c-0.405,0.71-0.963,1.063-1.671,1.063c-0.709,0-1.824,0.557-3.344,1.672
		c-1.519,1.115-3.039,2.38-4.559,3.8c-1.116,0.91-2.305,1.746-3.572,2.505c-1.268,0.763-2.256,1.141-2.963,1.141
		c-0.813,0-1.9,0.255-3.268,0.76c-1.368,0.507-2.659,1.012-3.875,1.521c-0.204,0-0.356,0.049-0.456,0.15h-0.457
		c-1.013,0-1.773-0.378-2.279-1.141c-0.508-0.759-0.759-1.595-0.759-2.505v-0.154c0.1-1.519,0.251-2.684,0.456-3.495
		c0.202-0.809,0.86-1.822,1.975-3.04l17.477-24.923c0.708-1.113,1.949-2.635,3.724-4.56c1.771-1.924,3.773-3.975,6.002-6.154
		c2.228-2.179,4.534-4.306,6.916-6.384C125.098,78.853,127.302,77.052,129.331,75.533z M97.872,118.845
		c-0.913,1.318-1.546,2.357-1.899,3.117c-0.356,0.759-0.532,1.291-0.532,1.596c0,0.304,0.202,0.507,0.607,0.608h0.608
		c0.506,0,0.912,0.052,1.216,0.15c0.303,0.102,0.657,0.153,1.063,0.153c0.403,0,0.76-0.052,1.064-0.153
		c0.304-0.099,0.658-0.252,1.063-0.455c0.304-0.203,1.012-0.631,2.127-1.291c1.114-0.658,2.532-1.647,4.256-2.964
		c2.431-1.721,4.408-3.141,5.926-4.257c1.52-1.113,2.635-1.771,3.344-1.974c0.202-0.102,0.506-0.608,0.912-1.521
		c0.1-0.707,0.252-1.214,0.457-1.519c0.202-0.305,0.708-0.507,1.519-0.608c1.419-0.203,2.281-0.658,2.584-1.368
		c0.608-0.809,1.216-1.467,1.824-1.977c0.81-0.605,1.316-0.962,1.52-1.063c2.026-1.519,3.647-3.671,4.863-6.458
		c1.216-2.785,2.532-6.308,3.952-10.563l0.607-1.368c0.304-0.912,0.456-1.62,0.456-2.127c0-1.315-0.862-2.38-2.583-3.19
		c-0.204,0-0.304-0.053-0.304-0.153h-0.455c-1.926,0-5.472,2.431-10.639,7.294c-4.559,4.257-8.791,8.944-12.689,14.058
		C104.836,107.929,101.215,113.274,97.872,118.845z"/>
	<path d="M148.934,130.852l0.151-0.455c1.012-3.747,1.824-6.483,2.432-8.207c0.608-1.722,1.316-2.988,2.128-3.8
		c0.506-0.707,1.012-1.341,1.52-1.899c0.506-0.557,0.912-1.089,1.216-1.596c0.403-0.507,0.885-1.267,1.443-2.28
		c0.555-1.012,1.239-2.227,2.052-3.646l2.736-4.862c0.911-1.521,1.823-3.443,2.735-5.776c0.912-2.33,1.467-4.153,1.671-5.472
		c0.305-1.315,0.583-2.432,0.836-3.344c0.252-0.91,0.658-1.873,1.216-2.887c0.555-1.012,1.265-2.127,2.127-3.345
		c0.86-1.214,2.052-2.785,3.572-4.709c0.708-0.913,2.33-1.368,4.863-1.368l1.063,0.15h1.216c-0.607,1.015-1.165,2.128-1.671,3.345
		c-0.508,1.215-0.965,2.406-1.368,3.571c-0.406,1.166-0.736,2.229-0.988,3.191c-0.253,0.965-0.432,1.647-0.532,2.051
		c-0.102,0.205-0.152,0.457-0.152,0.762c0,0.203,0.051,0.304,0.152,0.304c0.202,0,0.506-0.229,0.911-0.685
		c0.405-0.455,0.709-0.784,0.913-0.987c2.431-2.127,4.354-3.952,5.774-5.472c1.417-1.521,2.532-2.76,3.343-3.723
		c0.81-0.962,1.342-1.696,1.597-2.204c0.251-0.507,0.429-0.86,0.532-1.063c0.202-0.405,0.354-0.657,0.455-0.762
		c0.506-0.302,1.088-0.683,1.749-1.138c0.657-0.458,1.392-1.039,2.203-1.749c2.025-1.519,3.773-2.735,5.244-3.648
		c1.467-0.91,2.659-1.617,3.571-2.127h0.761c0.809,0,1.467,0.255,1.975,0.762c0.304,0.302,0.456,0.76,0.456,1.365
		c0,1.217-0.456,2.736-1.368,4.562c-1.318,2.634-2.636,4.813-3.952,6.535c-1.318,1.724-2.534,2.837-3.647,3.342
		c-0.508,0.304-0.911,0.457-1.215,0.457c-0.813,0-1.774-0.707-2.888-2.129c-0.912,0.71-1.975,1.573-3.191,2.585
		c-1.216,1.014-2.382,2.05-3.496,3.113c-1.116,1.066-2.179,2.078-3.191,3.04c-1.014,0.965-1.724,1.7-2.127,2.204
		c-3.952,4.663-7.879,9.652-11.779,14.971c-3.901,5.317-7.218,10.359-9.954,15.12l-0.608,0.76c-2.432,3.144-4.156,5.222-5.167,6.231
		c-0.812,0.912-1.671,1.367-2.584,1.367c-0.406,0-1.216-0.15-2.432-0.455H148.934z"/>
	<path d="M198.933,110.031c0.809-1.011,1.771-2.508,2.887-4.484c1.114-1.974,2.254-4.153,3.419-6.535
		c1.164-2.377,2.33-4.885,3.497-7.521c1.163-2.632,2.303-5.116,3.418-7.446c-0.71-0.202-1.192-0.608-1.443-1.217
		c-0.253-0.608-0.38-1.315-0.38-2.127c0.099-0.507,0.532-1.163,1.292-1.977c0.76-0.809,1.748-1.771,2.963-2.887
		c0.81-0.812,1.494-1.494,2.052-2.053c0.557-0.555,0.988-0.987,1.292-1.291c0.911-1.215,2.177-1.823,3.799-1.823h0.152
		c0.099,0,0.251,0.052,0.456,0.15h0.456c1.012,0.206,1.771,0.482,2.279,0.837c0.506,0.355,0.761,1.041,0.761,2.053
		c0,0.507-0.152,1.215-0.457,2.127c-0.709,2.938-1.215,4.965-1.52,6.078c-0.304,1.117-0.66,2.182-1.063,3.193
		c-0.508,1.014-1.04,2.077-1.595,3.19c-0.559,1.115-1.546,2.788-2.963,5.014c-0.711,1.015-1.623,2.459-2.736,4.332
		c-1.117,1.877-2.534,4.231-4.256,7.066c-3.343,5.776-6.104,10.362-8.283,13.756c-2.179,3.396-4.282,6.308-6.306,8.739
		c-0.813,1.012-2.105,2.077-3.876,3.19c-1.773,1.113-3.115,1.672-4.027,1.672c-0.407,0-0.66-0.052-0.761-0.153
		c-0.303-0.202-0.455-0.405-0.455-0.608c0-0.2,0.304-0.858,0.912-1.974c0.1-0.102,0.304-0.458,0.608-1.063
		c0.303-0.608,0.631-1.217,0.987-1.826c0.354-0.605,0.734-1.264,1.14-1.974c0.708-1.315,2.075-3.9,4.104-7.752
		c0.809-1.417,1.569-2.785,2.279-4.104C198.272,111.298,198.729,110.438,198.933,110.031z M239.207,39.819
		c0.912,0.606,1.368,1.67,1.368,3.191l-0.152,2.277c-0.304,2.028-1.116,3.777-2.432,5.244c-1.318,1.47-2.989,2.914-5.015,4.331
		c-0.912,0.913-1.52,1.368-1.824,1.368c-0.303,0-0.659-0.252-1.064-0.759c-1.014-1.722-1.52-3.85-1.52-6.385
		c0-2.023,0.252-3.545,0.761-4.559c0.506-1.012,1.52-2.026,3.039-3.04c0.913-0.606,1.824-1.113,2.735-1.519
		c0.912-0.403,1.722-0.608,2.432-0.608C238.143,39.362,238.698,39.516,239.207,39.819z"/>
	<path d="M246.197,121.276c0,0.305-0.303,0.913-0.912,1.825c-0.607,0.911-1.368,1.851-2.279,2.811
		c-0.912,0.965-1.952,1.899-3.116,2.813c-1.166,0.913-2.256,1.519-3.268,1.823c-1.724,0.509-3.724,0.962-6.003,1.367
		c-2.28,0.403-4.383,0.608-6.307,0.608c-2.028-0.101-4.46-0.455-7.296-1.063c-2.837-0.608-5.114-1.267-6.838-1.977
		c-0.708-0.099-1.342-0.326-1.9-0.683c-0.555-0.354-0.836-0.885-0.836-1.595c0-0.608,0.457-1.368,1.368-2.281
		c0.912-0.912,2.23-1.57,3.952-1.977c0.304-0.809,0.684-1.467,1.139-1.974c0.457-0.507,1.292-1.115,2.508-1.825
		c0.1,0,0.152-0.05,0.152-0.151h0.455c0.709,0,1.217,0.71,1.52,2.128c0.81,0.304,1.9,0.683,3.268,1.14
		c1.368,0.455,2.812,0.861,4.332,1.215c1.52,0.356,3.014,0.66,4.483,0.913c1.468,0.255,2.759,0.381,3.876,0.381
		c2.024,0,3.039-0.507,3.039-1.521c0-0.403-0.152-0.913-0.455-1.519c-0.204-0.203-0.356-0.708-0.457-1.521
		c-0.304-1.113-0.634-2.051-0.988-2.81c-0.356-0.763-0.987-1.749-1.9-2.964c-1.42-2.13-2.432-4.307-3.039-6.535
		c-0.609-2.229-0.913-4.104-0.913-5.625c0-1.722,0.229-3.213,0.684-4.481c0.457-1.267,1.088-2.862,1.9-4.787
		c0.506-0.912,0.76-1.521,0.76-1.825c0.607-1.519,1.596-3.04,2.963-4.559c1.368-1.519,2.888-2.964,4.559-4.331
		c1.672-1.368,3.344-2.607,5.015-3.723c1.672-1.113,3.166-2.026,4.483-2.736c3.647-1.722,6.839-2.585,9.575-2.585
		c1.721,0,3.191,0.356,4.406,1.063c0.708,0.609,1.064,1.423,1.064,2.432c0,1.015-0.254,2.028-0.759,3.04
		c-0.406,0.71-1.141,1.826-2.204,3.345s-2.256,3.142-3.571,4.863c-1.318,1.724-2.66,3.368-4.028,4.939
		c-1.368,1.57-2.559,2.81-3.57,3.723c-0.103,0.102-0.206,0.153-0.304,0.153c-0.103,0-0.255,0.052-0.457,0.15
		c-0.204,0.206-0.508,0.356-0.912,0.456c-0.508,0-0.911-0.403-1.215-1.215c0-0.403,0.607-1.217,1.823-2.432
		c1.418-1.825,2.608-3.443,3.572-4.863c0.962-1.417,1.646-2.634,2.052-3.648c0.304-0.304,0.457-0.759,0.457-1.368
		c0-0.809-0.281-1.519-0.836-2.127c-0.558-0.608-1.345-0.913-2.356-0.913c-0.304,0.104-0.709,0.206-1.215,0.305
		c-0.508,0.104-1.064,0.305-1.672,0.608c-0.507,0.205-0.963,0.381-1.367,0.532c-0.407,0.15-0.761,0.329-1.065,0.531
		c-2.127,1.015-3.699,2.028-4.711,3.04c-1.014,1.015-1.773,2.229-2.279,3.646c-0.204,0.608-0.508,1.217-0.912,1.825
		c-0.508,0.812-0.862,1.62-1.064,2.432c-0.204,0.812-0.356,2.229-0.456,4.255c0,1.724,0.152,3.064,0.456,4.026
		c0.304,0.965,1.114,2.409,2.433,4.331c0.607,0.814,0.961,1.42,1.063,1.826c0,0.405,0.607,1.57,1.823,3.495
		c0.708,1.115,1.164,2.028,1.368,2.735c0.202,0.71,0.304,1.571,0.304,2.583c0,0.205,0.023,0.455,0.076,0.759
		c0.051,0.305,0.077,0.66,0.077,1.063C246.046,119.963,246.197,120.771,246.197,121.276z"/>
	<path d="M281.913,121.276c0,0.305-0.303,0.913-0.912,1.825c-0.607,0.911-1.368,1.851-2.279,2.811
		c-0.912,0.965-1.952,1.899-3.115,2.813c-1.167,0.913-2.256,1.519-3.268,1.823c-1.724,0.509-3.724,0.962-6.003,1.367
		c-2.28,0.403-4.383,0.608-6.307,0.608c-2.028-0.101-4.46-0.455-7.296-1.063c-2.837-0.608-5.114-1.267-6.838-1.977
		c-0.708-0.099-1.342-0.326-1.9-0.683c-0.555-0.354-0.836-0.885-0.836-1.595c0-0.608,0.457-1.368,1.368-2.281
		c0.912-0.912,2.23-1.57,3.952-1.977c0.304-0.809,0.684-1.467,1.139-1.974c0.457-0.507,1.292-1.115,2.508-1.825
		c0.1,0,0.152-0.05,0.152-0.151h0.455c0.709,0,1.217,0.71,1.52,2.128c0.81,0.304,1.9,0.683,3.268,1.14
		c1.368,0.455,2.812,0.861,4.332,1.215c1.52,0.356,3.014,0.66,4.483,0.913c1.468,0.255,2.759,0.381,3.876,0.381
		c2.024,0,3.039-0.507,3.039-1.521c0-0.403-0.152-0.913-0.455-1.519c-0.204-0.203-0.356-0.708-0.456-1.521
		c-0.305-1.113-0.635-2.051-0.988-2.81c-0.356-0.763-0.987-1.749-1.9-2.964c-1.42-2.13-2.432-4.307-3.039-6.535
		c-0.609-2.229-0.913-4.104-0.913-5.625c0-1.722,0.229-3.213,0.684-4.481c0.457-1.267,1.088-2.862,1.9-4.787
		c0.506-0.912,0.76-1.521,0.76-1.825c0.607-1.519,1.596-3.04,2.963-4.559c1.368-1.519,2.888-2.964,4.559-4.331
		c1.672-1.368,3.344-2.607,5.015-3.723c1.672-1.113,3.166-2.026,4.483-2.736c3.647-1.722,6.839-2.585,9.575-2.585
		c1.721,0,3.191,0.356,4.406,1.063c0.708,0.609,1.064,1.423,1.064,2.432c0,1.015-0.253,2.028-0.759,3.04
		c-0.406,0.71-1.141,1.826-2.204,3.345s-2.256,3.142-3.571,4.863c-1.318,1.724-2.66,3.368-4.028,4.939
		c-1.368,1.57-2.559,2.81-3.571,3.723c-0.103,0.102-0.205,0.153-0.304,0.153c-0.103,0-0.255,0.052-0.457,0.15
		c-0.204,0.206-0.508,0.356-0.912,0.456c-0.508,0-0.911-0.403-1.215-1.215c0-0.403,0.607-1.217,1.823-2.432
		c1.418-1.825,2.608-3.443,3.572-4.863c0.962-1.417,1.646-2.634,2.052-3.648c0.304-0.304,0.457-0.759,0.457-1.368
		c0-0.809-0.281-1.519-0.836-2.127c-0.558-0.608-1.345-0.913-2.356-0.913c-0.305,0.104-0.71,0.206-1.216,0.305
		c-0.508,0.104-1.064,0.305-1.672,0.608c-0.507,0.205-0.963,0.381-1.367,0.532c-0.407,0.15-0.761,0.329-1.065,0.531
		c-2.127,1.015-3.699,2.028-4.711,3.04c-1.014,1.015-1.773,2.229-2.279,3.646c-0.204,0.608-0.508,1.217-0.912,1.825
		c-0.508,0.812-0.862,1.62-1.064,2.432c-0.204,0.812-0.356,2.229-0.456,4.255c0,1.724,0.152,3.064,0.456,4.026
		c0.304,0.965,1.114,2.409,2.433,4.331c0.607,0.814,0.961,1.42,1.063,1.826c0,0.405,0.607,1.57,1.823,3.495
		c0.708,1.115,1.164,2.028,1.368,2.735c0.202,0.71,0.304,1.571,0.304,2.583c0,0.205,0.023,0.455,0.076,0.759
		c0.051,0.305,0.077,0.66,0.077,1.063C281.762,119.963,281.913,120.771,281.913,121.276z"/>
	<path d="M331.76,75.533c1.722-1.113,3.622-2.103,5.699-2.964c2.075-0.86,3.975-1.291,5.699-1.291c1.216,0,2.127,0.305,2.736,0.91
		c1.823,1.115,2.734,3.8,2.734,8.057c0,0.507-0.026,1.039-0.076,1.596c-0.052,0.557-0.128,1.088-0.228,1.595v0.455
		c0.099,1.318,0.708,1.977,1.823,1.977c0.81,0,1.673-0.202,2.583-0.608c-0.101,0.51-0.203,1.217-0.304,2.127
		c-0.102,0.913-0.204,2.078-0.303,3.495c-0.103,1.623-0.229,2.964-0.38,4.03c-0.152,1.063-0.33,1.899-0.533,2.506
		c-0.507,1.217-1.242,2.787-2.203,4.712c-0.965,1.927-2.307,4.205-4.028,6.839c-2.027,3.04-3.596,5.573-4.711,7.599
		c-1.115,2.028-1.773,4.104-1.975,6.231c0.303-0.203,0.708-0.431,1.216-0.686c0.506-0.25,1.113-0.581,1.823-0.986
		c1.824-1.218,3.04-1.823,3.647-1.823h0.304l0.152-0.153c0.506,0,0.759,0.304,0.759,0.913c0,1.115-0.406,2.431-1.216,3.95
		c-0.508,0.304-1.013,0.66-1.519,1.063c-0.508,0.408-1.014,0.912-1.52,1.521c-1.117,1.115-2.181,1.924-3.192,2.431h-0.455
		c-1.421,0.609-2.28,1.165-2.583,1.673c-0.204,0.304-0.862,0.455-1.977,0.455c-0.607,0-1.192-0.025-1.748-0.077
		c-0.558-0.049-1.089-0.126-1.595-0.228h-0.304c-1.216-0.403-1.823-1.113-1.823-2.127c0-0.305,0.023-0.608,0.076-0.913
		c0.049-0.304,0.175-0.658,0.379-1.063c0.405-0.707,0.962-1.949,1.672-3.723c0.708-1.771,1.467-3.824,2.279-6.154
		c0.608-1.62,1.087-2.938,1.443-3.953c0.355-1.012,0.632-1.672,0.836-1.976l0.152-0.151c0.506-1.012,0.761-1.977,0.761-2.887
		l-0.152-0.457v-0.911c-0.204,0.812-0.787,1.596-1.748,2.355c-0.965,0.759-2.028,1.469-3.192,2.127
		c-1.167,0.66-2.306,1.192-3.42,1.596c-1.116,0.405-1.876,0.608-2.279,0.608c-0.912,0-2.153,0.608-3.723,1.823
		c-1.573,1.217-3.218,2.889-4.94,5.017l-0.608,0.608c-0.406,0.71-0.963,1.063-1.671,1.063c-0.71,0-1.824,0.557-3.344,1.672
		c-1.519,1.115-3.039,2.38-4.559,3.8c-1.115,0.91-2.305,1.746-3.572,2.505c-1.268,0.763-2.256,1.141-2.963,1.141
		c-0.813,0-1.899,0.255-3.268,0.76c-1.368,0.507-2.659,1.012-3.875,1.521c-0.204,0-0.356,0.049-0.457,0.15h-0.457
		c-1.013,0-1.773-0.378-2.279-1.141c-0.508-0.759-0.759-1.595-0.759-2.505v-0.154c0.1-1.519,0.251-2.684,0.457-3.495
		c0.202-0.809,0.859-1.822,1.975-3.04l17.477-24.923c0.707-1.113,1.949-2.635,3.724-4.56c1.771-1.924,3.773-3.975,6.002-6.154
		c2.227-2.179,4.534-4.306,6.916-6.384C327.528,78.853,329.731,77.052,331.76,75.533z M300.301,118.845
		c-0.913,1.318-1.546,2.357-1.9,3.117c-0.356,0.759-0.532,1.291-0.532,1.596c0,0.304,0.202,0.507,0.607,0.608h0.608
		c0.506,0,0.912,0.052,1.216,0.15c0.303,0.102,0.657,0.153,1.063,0.153c0.403,0,0.759-0.052,1.063-0.153
		c0.304-0.099,0.658-0.252,1.064-0.455c0.304-0.203,1.012-0.631,2.127-1.291c1.114-0.658,2.532-1.647,4.256-2.964
		c2.432-1.721,4.408-3.141,5.927-4.257c1.52-1.113,2.634-1.771,3.344-1.974c0.202-0.102,0.506-0.608,0.912-1.521
		c0.1-0.707,0.252-1.214,0.456-1.519c0.202-0.305,0.708-0.507,1.519-0.608c1.418-0.203,2.281-0.658,2.583-1.368
		c0.608-0.809,1.216-1.467,1.824-1.977c0.81-0.605,1.316-0.962,1.52-1.063c2.026-1.519,3.647-3.671,4.863-6.458
		c1.216-2.785,2.532-6.308,3.951-10.563l0.607-1.368c0.304-0.912,0.457-1.62,0.457-2.127c0-1.315-0.862-2.38-2.584-3.19
		c-0.204,0-0.304-0.053-0.304-0.153h-0.455c-1.926,0-5.472,2.431-10.639,7.294c-4.559,4.257-8.791,8.944-12.689,14.058
		C307.266,107.929,303.644,113.274,300.301,118.845z"/>
	<path d="M382.062,115.958c0.1-0.202,0.355-0.504,0.76-0.912c0.404-0.403,0.912-1.012,1.52-1.823
		c2.33-2.735,4.711-5.622,7.143-8.662s5.32-6.84,8.664-11.398c4.762-6.382,9.195-12.767,13.297-19.148
		c4.104-6.384,7.926-12.766,11.475-19.15c3.443-6.382,7.166-13.574,11.172-21.579c4-8.004,8.281-16.869,12.84-26.596
		c0.912-0.507,1.924-1.141,3.041-1.899c1.113-0.762,2.279-1.799,3.494-3.117l1.217-1.063C456.987,0.205,457.39,0,457.897,0
		c0.404,0,1.369,0.458,2.889,1.368h0.15l-23.1,46.352c-0.508,1.015-1.393,2.662-2.66,4.94c-1.268,2.28-2.609,4.688-4.027,7.22
		c-1.418,2.432-2.658,4.534-3.723,6.306c-1.064,1.775-1.85,3.067-2.355,3.876l-21.428,30.851c1.416-0.81,2.785-1.618,4.102-2.432
		c1.316-0.81,2.736-1.771,4.256-2.887c1.316-1.012,2.229-1.62,2.736-1.823c2.834-2.026,5.266-3.747,7.295-5.167
		c2.025-1.418,3.926-2.659,5.699-3.723c1.77-1.066,3.621-2.078,5.547-3.04c1.922-0.963,4.256-2.054,6.99-3.268
		c0.1-0.102,1.113-0.557,3.039-1.368c2.129-1.012,3.9-1.672,5.32-1.977c0.707-0.203,1.52-0.381,2.432-0.531
		c0.912-0.151,1.977-0.277,3.191-0.382c-1.117,2.638-1.926,4.408-2.432,5.321c-0.508,0.91-1.117,1.57-1.824,1.977l-5.016,2.277
		c-2.939,1.318-4.99,2.231-6.154,2.736c-1.166,0.51-2.154,1.063-2.965,1.672c-1.014,0.812-2.635,2.001-4.861,3.572
		c-2.23,1.57-4.461,3.064-6.688,4.481c-0.51,0.305-1.041,1.042-1.596,2.204c-0.559,1.165-0.836,2.154-0.836,2.964
		c0.1,0.405,0.152,0.863,0.152,1.367c0,0.406,0,0.812,0,1.218c0.1,0.71,0.152,1.315,0.152,1.822c0,0.508,0.049,0.861,0.15,1.063
		l0.152,0.609c1.012,5.775,1.875,9.522,2.584,11.244c1.113,2.13,2.053,3.75,2.811,4.863c0.76,1.118,1.723,1.954,2.889,2.508
		c1.164,0.56,2.66,0.889,4.484,0.99c1.822,0.101,4.354,0.202,7.598,0.302c0.506,0,1.266-0.505,2.279-1.52
		c1.217-0.912,2.303-1.645,3.268-2.203c0.961-0.555,2.15-0.837,3.572-0.837c-1.623,2.638-3.143,4.737-4.561,6.308
		c-1.42,1.573-2.836,2.761-4.256,3.572c-1.42,0.809-2.912,1.341-4.482,1.596c-1.572,0.252-3.268,0.381-5.092,0.381
		c-0.203,0-0.455,0-0.758,0c-0.305,0-0.711-0.055-1.217-0.153h-2.432c-3.039-0.102-5.422-0.608-7.143-1.519
		c-1.725-0.913-3.396-2.988-5.016-6.231c-1.115-2.33-1.9-4.205-2.355-5.625c-0.455-1.417-0.889-2.985-1.293-4.71
		c-0.102-0.507-0.33-1.343-0.684-2.508c-0.355-1.162-0.785-2.708-1.291-4.636c-0.508-1.62-0.912-2.963-1.215-4.026
		c-0.305-1.063-0.561-1.9-0.762-2.509c-3.547,2.333-6.359,4.181-8.434,5.549c-2.078,1.367-3.723,2.532-4.939,3.495
		c-1.215,0.965-2.23,1.899-3.039,2.81c-0.813,0.913-1.773,2.028-2.889,3.345c-0.811,0.912-1.547,1.773-2.203,2.585
		c-0.66,0.811-1.242,1.469-1.748,1.974c-1.621,1.623-3.648,2.432-6.078,2.432c-0.205,0-0.305-0.25-0.305-0.76
		c0-0.91,0.252-2.253,0.76-4.026C381.048,118.519,381.554,117.074,382.062,115.958z"/>
	<path d="M472.333,93.162c-1.725,3.142-3.625,6.713-5.699,10.716c-2.078,4.002-3.979,7.725-5.699,11.168
		c-0.813,1.521-1.395,2.864-1.748,4.029c-0.357,1.165-0.584,2.103-0.686,2.81c1.723-0.304,3.648-1.467,5.777-3.495
		c0,1.725,0.354,3.243,1.063,4.559c-0.406,0.305-0.861,0.71-1.367,1.218c-0.508,0.507-1.166,1.165-1.975,1.974
		c-0.609,0.813-1.193,1.521-1.748,2.13c-0.559,0.605-1.092,1.115-1.598,1.519c-0.91,0.812-2.354,1.467-4.33,1.977
		c-1.977,0.505-3.521,0.809-4.637,0.91c-1.115,0-1.67-0.71-1.67-2.127c-0.104-0.1-0.152-0.253-0.152-0.455l-0.457-0.609
		c-0.402-0.91-0.607-1.672-0.607-2.277c1.217-3.548,2.584-6.815,4.104-9.803c1.52-2.988,2.482-5.039,2.887-6.157
		c0.506-1.313,1.09-2.632,1.748-3.95c0.658-1.315,1.342-2.684,2.053-4.104c1.416-2.937,2.557-5.318,3.42-7.144
		c0.859-1.823,1.543-2.985,2.051-3.495l10.486-16.412c0.506-0.708,1.418-2.18,2.734-4.408s2.988-5.017,5.016-8.358
		c1.924-3.344,3.748-6.535,5.473-9.575c1.721-3.04,3.443-6.129,5.166-9.271c1.924-3.342,2.988-5.167,3.193-5.472
		c0.201-0.2,0.303-0.455,0.303-0.76c0-0.402,0-1.162,0-2.277c0-1.621,0.203-3.04,0.607-4.258l0.152-0.15
		c0.809-2.127,1.443-3.849,1.9-5.167c0.455-1.316,0.809-2.509,1.063-3.572c0.252-1.063,0.43-2.177,0.533-3.345
		c0.1-1.162,0.152-2.758,0.152-4.786c2.227-2.432,4-4.026,5.318-4.786c1.314-0.762,2.836-1.242,4.559-1.444
		c0.201,0,0.457-0.05,0.76-0.153c2.025,0,3.041,0.813,3.041,2.434c0,0.71-0.254,1.571-0.76,2.583
		c-0.205,0.811-0.586,2.127-1.141,3.95c-0.559,1.825-1.291,4.207-2.205,7.144c-0.303,1.42-0.91,3.396-1.822,5.927
		c-0.508,1.927-1.141,3.522-1.9,4.788c-0.76,1.267-1.697,2.659-2.813,4.179c-0.811,1.014-1.365,1.724-1.67,2.127l-3.344,5.775
		c-0.303,0.608-0.635,1.217-0.988,1.823c-0.355,0.608-0.684,1.269-0.988,1.977c-0.303,0.608-0.91,1.749-1.824,3.421
		c-0.91,1.67-2.127,3.926-3.646,6.763c-2.533,4.762-4.635,8.714-6.307,11.854c-1.672,3.142-2.914,5.269-3.725,6.382L472.333,93.162z
		"/>
	<path d="M512.759,112.008c-1.117,0.91-2.484,2.229-4.104,3.95c-1.623,1.725-3.143,3.345-4.561,4.863
		c-0.711,0.71-1.822,1.217-3.344,1.519c-1.824,0.51-3.039,1.118-3.646,1.826c-1.115,1.214-2.154,2.256-3.115,3.114
		c-0.965,0.863-1.852,1.395-2.66,1.595c-0.813,0.206-1.395,0.434-1.748,0.686c-0.355,0.255-0.785,0.633-1.291,1.141
		c-0.508,0.504-1.141,0.858-1.9,1.063c-0.76,0.2-1.898,0.403-3.42,0.608c-0.404,0.099-0.813,0.15-1.215,0.15
		c-0.305,0-0.607,0.05-0.912,0.151c-0.912,0-1.471-0.126-1.672-0.379c-0.203-0.254-0.355-0.736-0.457-1.444
		c-0.102,0-0.15-0.15-0.15-0.455c0-0.203-0.053-0.403-0.152-0.608c-0.102-0.203-0.152-0.455-0.152-0.76
		c0-0.304,0.051-0.707,0.152-1.217c0.1-0.505,0.252-1.113,0.455-1.823c0.203-0.608,0.533-1.645,0.988-3.114
		c0.457-1.469,1.088-3.268,1.9-5.396l4.256-12.613c0.098-0.304,0.201-0.658,0.303-1.063c0.1-0.403,0.252-0.913,0.457-1.521
		c0.303-1.012,0.531-1.823,0.684-2.432c0.152-0.605,0.328-1.012,0.531-1.214c0.609-1.012,1.189-2.103,1.748-3.268
		c0.557-1.165,0.988-2.254,1.293-3.268c0.402-1.113,0.836-1.949,1.291-2.509c0.455-0.554,1.088-1.239,1.898-2.05l0.457-0.458
		c1.316-1.113,2.48-2.227,3.494-3.342c1.115-1.417,2.254-2.303,3.42-2.659c1.164-0.356,2.455-0.633,3.875-0.836
		c1.012-0.203,1.57-0.354,1.672-0.458c0.305-0.304,0.506-0.455,0.609-0.455c0.303,0,0.455,0.913,0.455,2.736v1.367
		c0.506-0.912,1.037-1.748,1.596-2.508c0.557-0.76,1.393-1.746,2.508-2.963c0.811-0.913,1.848-1.621,3.115-2.128
		c1.266-0.507,3.318-1.165,6.156-1.977l0.76-0.15c1.215-0.406,2.252-0.734,3.115-0.989c0.859-0.25,1.543-0.48,2.051-0.683
		c0.811-0.203,1.52-0.305,2.127-0.305c2.836,0,4.256,1.368,4.256,4.104c0,2.028-0.254,3.928-0.76,5.699
		c-0.508,1.773-1.268,3.824-2.279,6.154c-1.621,4.155-2.939,7.144-3.951,8.967c-0.508,0.812-1.064,1.596-1.672,2.354
		c-0.607,0.762-1.318,1.444-2.129,2.054c-0.203,0.202-0.531,0.531-0.986,0.986c-0.457,0.458-1.09,1.141-1.9,2.054l-0.607,0.605
		c-1.824,2.028-3.244,3.572-4.254,4.636C514.327,110.41,513.466,111.298,512.759,112.008z M501.663,114.439l5.32-5.32
		c5.064-4.962,8.002-7.498,8.814-7.599c0.809-0.201,1.848-1.292,3.115-3.268c1.266-1.975,2.709-4.482,4.33-7.522
		c0.506-0.809,0.887-1.771,1.141-2.887c0.252-1.115,0.381-2.13,0.381-3.04c0-1.315-0.18-2.179-0.533-2.585
		c-0.355-0.403-1.09-0.605-2.203-0.605c-3.143,0-5.168,0.202-6.08,0.605c-0.91,0.406-1.723,1.27-2.43,2.585
		c-0.104,0.203-0.18,0.356-0.229,0.455c-0.053,0.102-0.129,0.255-0.229,0.455c-0.303,0.913-0.66,1.546-1.064,1.899
		c-0.404,0.356-1.115,0.587-2.127,0.686c-2.635,0-4.84,1.063-6.609,3.191c-1.775,2.127-3.676,5.422-5.699,9.879
		c-0.305,0.507-0.635,1.165-0.988,1.974c-0.357,0.814-0.787,1.673-1.293,2.585c-0.813,1.623-1.52,3.016-2.127,4.181
		s-1.115,2.152-1.521,2.963c-0.303,0.71-0.734,1.571-1.291,2.583c-0.557,1.014-1.191,2.231-1.898,3.648
		c-0.104,0.102-0.178,0.228-0.229,0.378c-0.053,0.153-0.129,0.332-0.229,0.532c-0.406,0.51-0.607,0.913-0.607,1.217
		c0,0.305,0.354,0.455,1.064,0.455c0.201,0,0.402-0.022,0.607-0.076c0.201-0.05,0.557-0.074,1.063-0.074
		c1.217-0.403,2.205-0.734,2.965-0.989c0.76-0.25,1.52-0.606,2.279-1.064c0.76-0.455,1.596-1.086,2.508-1.899
		C498.776,116.973,500.042,115.859,501.663,114.439z"/>
	<path d="M525.067,125.38c0.506-5.167,2.227-10.434,5.166-15.804c2.938-5.37,6.992-11.804,12.16-19.301
		c1.416-2.13,2.633-3.975,3.646-5.548c1.012-1.568,1.824-2.813,2.432-3.724c1.924-3.039,3.926-6.255,6.004-9.651
		c2.074-3.392,4.33-7.013,6.762-10.866c2.736-4.354,5.016-8.079,6.84-11.168c1.822-3.09,3.291-5.647,4.406-7.676
		c1.924-3.747,2.889-7.193,2.889-10.335l0.912-0.455c1.922-0.912,3.697-2.075,5.318-3.497c0.912-0.708,1.672-1.063,2.279-1.063
		c1.115,0,2.127,0.608,3.041,1.825c0.303,0.203,0.455,0.605,0.455,1.214c0,0.609-0.607,1.977-1.824,4.104
		c-0.203,0.205-0.33,0.381-0.379,0.531c-0.053,0.153-0.129,0.228-0.229,0.228l-2.584,4.559c-2.939,5.168-5.699,9.855-8.283,14.061
		s-5.193,8.687-7.826,13.448l-8.662,15.352c0.098-0.102,0.811-0.557,2.127-1.368c2.938-1.925,5.445-3.421,7.523-4.484
		c2.076-1.063,4.18-1.848,6.307-2.355c1.113-0.202,2.129-0.403,3.039-0.608c0.912-0.202,1.824-0.304,2.736-0.304
		c0.201,0,0.402,0.052,0.607,0.153h0.607c1.316,0.302,1.977,0.86,1.977,1.669c-0.711,4.258-1.547,8.463-2.508,12.615
		c-0.965,4.156-1.953,7.396-2.965,9.727c-0.811,1.724-1.773,3.648-2.887,5.775c-1.115,2.128-2.18,4.055-3.191,5.776
		c-0.205,0.102-0.379,0.178-0.531,0.228c-0.152,0.052-0.33,0.178-0.533,0.378c-0.203,0.305-0.557,0.458-1.063,0.458
		c-0.609,0.605-1.672,1.924-3.193,3.95c-0.811,1.014-1.518,1.851-2.127,2.508c-0.607,0.661-1.166,1.192-1.672,1.596
		c-1.723,1.015-2.836,2.127-3.342,3.345c-0.814,0.507-2.105,1.291-3.875,2.354c-1.775,1.063-3.473,1.951-5.092,2.659
		c-0.813,0.304-1.801,0.71-2.965,1.217c-1.166,0.507-2.559,1.115-4.178,1.823c-0.205,0-0.357,0.052-0.457,0.15
		c-2.533,1.118-4.635,2.028-6.307,2.736c-1.672,0.707-2.762,1.063-3.268,1.063c-1.215,0-2.432-0.302-3.646-0.91
		c-1.217-0.608-1.926-1.571-2.129-2.89c0-1.012-0.076-1.722-0.229-2.127C526.208,126.345,525.776,125.89,525.067,125.38z
		 M567.925,99.848c0.707-1.417,1.342-3.268,1.9-5.545c0.555-2.281,1.238-4.889,2.051-7.827c0.203-0.811,0.354-1.469,0.455-1.976
		c0.102-0.508,0.203-0.913,0.305-1.218c0.201-0.504,0.354-0.986,0.457-1.441c0.098-0.458,0.15-0.837,0.15-1.141
		c0-0.707-0.303-1.063-0.912-1.063c-0.203,0-0.404,0.024-0.607,0.076s-0.508,0.126-0.912,0.228
		c-0.709,0.203-1.115,0.356-1.215,0.455c-4.156,1.218-7.902,3.901-11.246,8.055l-6.84,7.447c-1.215,1.318-2.256,2.229-3.115,2.736
		c-0.861,0.507-1.801,0.91-2.813,1.214c-1.621,0.814-2.734,1.773-3.342,2.89l-0.912,1.368c-1.926,3.242-3.471,6.104-4.635,8.585
		c-1.166,2.483-2.004,5.195-2.508,8.131c-0.205,1.015-0.305,1.773-0.305,2.28c0,0.508,0,1.166,0,1.975c0.809,0,1.467,0,1.977,0
		c0.506,0,1.314-0.1,2.432-0.302c0.1-0.102,0.303-0.203,0.607-0.305c0.303-0.102,0.506-0.153,0.607-0.153
		c2.432-0.505,4.863-1.264,7.295-2.278c2.432-1.012,4.508-2.13,6.23-3.344c3.344-2.33,6.18-5.066,8.512-8.207
		C563.87,107.348,565.999,103.801,567.925,99.848z"/>
	<path d="M620.962,94.834c-3.141,4.66-7.195,7.978-12.158,9.954c-4.965,1.976-10.285,2.963-15.957,2.963
		c-0.813,0-1.42-0.05-1.824-0.15h-1.824l-2.887,3.342c-1.014,1.117-1.824,2.077-2.432,2.889s-1.064,1.47-1.369,1.977
		c-0.303,0.507-0.508,1.088-0.605,1.746c-0.104,0.66-0.205,1.444-0.305,2.354c0,1.521,0.658,2.536,1.975,3.04
		c1.316,0.51,2.531,0.76,3.646,0.76c1.521,0,3.346-0.302,5.473-0.91s4.963-1.57,8.51-2.89l0.609-0.15
		c0.402-0.203,1.012-0.505,1.822-0.913c0.811-0.403,1.873-1.012,3.191-1.822c1.924-1.012,3.42-1.823,4.484-2.432
		s2-1.012,2.811-1.215c0.305-0.102,0.684-0.329,1.141-0.686c0.455-0.354,1.088-0.784,1.9-1.291c1.113-1.012,1.873-1.521,2.279-1.521
		c0.1,0,0.152,0.104,0.152,0.305c-0.305,1.724-0.635,2.889-0.988,3.495c-0.357,0.608-0.785,1.168-1.291,1.672l-1.217,1.217
		c-0.912,1.116-2.887,2.484-5.928,4.104c-2.939,1.62-5.926,3.037-8.967,4.254c-4.863,2.128-9.295,3.852-13.297,5.168
		c-4.004,1.315-6.664,1.976-7.979,1.976c-5.979,0-8.967-1.976-8.967-5.929c0-2.227,0.328-4.331,0.988-6.306
		c0.658-1.976,1.494-3.67,2.508-5.093c0.201-0.505,1.215-1.922,3.039-4.254c1.113-1.52,1.949-2.659,2.508-3.419
		c0.555-0.76,0.936-1.239,1.139-1.444c0.1-0.203,0.252-0.354,0.457-0.455c0.201-0.102,0.305-0.253,0.305-0.458
		c0-0.403-0.51-0.605-1.521-0.605l-0.152-0.153c0-0.201,0.305-0.658,0.912-1.368c0.609-0.708,1.342-1.442,2.205-2.204
		c0.859-0.76,1.695-1.467,2.508-2.127c0.809-0.658,1.365-1.086,1.67-1.292c0.506-0.099,1.217-0.63,2.129-1.595
		c0.912-0.963,2.076-2.303,3.496-4.027c2.328-2.837,4.049-4.712,5.166-5.625c1.924-1.922,3.975-3.772,6.154-5.546
		c2.178-1.771,4.256-3.316,6.23-4.635c1.977-1.316,3.801-2.355,5.473-3.117c1.672-0.759,3.063-1.138,4.18-1.138
		c4.76,1.215,7.143,3.747,7.143,7.599C627.497,82.219,625.317,87.54,620.962,94.834z M606.827,97.721
		c1.619-0.505,3.395-1.771,5.32-3.8c1.924-2.025,3.596-4.353,5.016-6.99c0.607-1.012,0.91-1.976,0.91-2.887
		c0-1.419-0.709-2.129-2.127-2.129c-0.508,0-1.268,0.255-2.279,0.762c-0.508,0.202-1.191,0.584-2.051,1.138
		c-0.863,0.559-1.824,1.244-2.889,2.053c-1.063,0.812-2.127,1.725-3.191,2.736c-1.064,1.014-2.051,2.028-2.963,3.04
		c-1.623,1.315-2.484,2.483-2.584,3.495c-0.205,0.507-0.455,0.86-0.76,1.063c-1.621,1.318-2.432,2.179-2.432,2.582
		c0,0.406,0.457,0.608,1.367,0.608c0.912,0,2.076-0.15,3.496-0.455C603.079,98.634,604.8,98.23,606.827,97.721z"/>
	<path d="M620.202,130.852l0.15-0.455c1.012-3.747,1.824-6.483,2.432-8.207c0.607-1.722,1.316-2.988,2.129-3.8
		c0.506-0.707,1.012-1.341,1.52-1.899c0.506-0.557,0.912-1.089,1.215-1.596c0.404-0.507,0.887-1.267,1.443-2.28
		c0.557-1.012,1.24-2.227,2.053-3.646l2.736-4.862c0.91-1.521,1.822-3.443,2.734-5.776c0.912-2.33,1.467-4.153,1.672-5.472
		c0.305-1.315,0.582-2.432,0.836-3.344c0.252-0.91,0.658-1.873,1.215-2.887c0.557-1.012,1.266-2.127,2.127-3.345
		c0.861-1.214,2.053-2.785,3.572-4.709c0.707-0.913,2.33-1.368,4.863-1.368l1.064,0.15h1.215c-0.607,1.015-1.164,2.128-1.67,3.345
		c-0.51,1.215-0.965,2.406-1.369,3.571c-0.404,1.166-0.734,2.229-0.988,3.191c-0.252,0.965-0.432,1.647-0.531,2.051
		c-0.102,0.205-0.152,0.457-0.152,0.762c0,0.203,0.051,0.304,0.152,0.304c0.201,0,0.506-0.229,0.912-0.685
		c0.404-0.455,0.709-0.784,0.912-0.987c2.432-2.127,4.355-3.952,5.775-5.472c1.416-1.521,2.531-2.76,3.342-3.723
		c0.811-0.962,1.342-1.696,1.598-2.204c0.25-0.507,0.43-0.86,0.531-1.063c0.201-0.405,0.354-0.657,0.455-0.762
		c0.506-0.302,1.088-0.683,1.748-1.138c0.658-0.458,1.393-1.039,2.203-1.749c2.027-1.519,3.773-2.735,5.244-3.648
		c1.467-0.91,2.66-1.617,3.57-2.127h0.762c0.809,0,1.467,0.255,1.975,0.762c0.305,0.302,0.457,0.76,0.457,1.365
		c0,1.217-0.457,2.736-1.369,4.562c-1.318,2.634-2.635,4.813-3.951,6.535c-1.318,1.724-2.533,2.837-3.646,3.342
		c-0.508,0.304-0.912,0.457-1.217,0.457c-0.813,0-1.773-0.707-2.887-2.129c-0.912,0.71-1.977,1.573-3.191,2.585
		c-1.217,1.014-2.383,2.05-3.496,3.113c-1.115,1.066-2.18,2.078-3.191,3.04c-1.014,0.965-1.725,1.7-2.127,2.204
		c-3.951,4.663-7.879,9.652-11.779,14.971c-3.9,5.317-7.219,10.359-9.953,15.12l-0.609,0.76c-2.432,3.144-4.154,5.222-5.166,6.231
		c-0.813,0.912-1.672,1.367-2.584,1.367c-0.406,0-1.217-0.15-2.432-0.455H620.202z"/>
</g>
</svg>
