<?xml version="1.0" encoding="UTF-8" standalone="no"?>
<!-- Generator: Adobe Illustrator 16.0.0, SVG Export Plug-In . SVG Version: 6.00 Build 0)  -->

<svg
   xmlns:dc="http://purl.org/dc/elements/1.1/"
   xmlns:cc="http://creativecommons.org/ns#"
   xmlns:rdf="http://www.w3.org/1999/02/22-rdf-syntax-ns#"
   xmlns:svg="http://www.w3.org/2000/svg"
   xmlns="http://www.w3.org/2000/svg"
   xmlns:sodipodi="http://sodipodi.sourceforge.net/DTD/sodipodi-0.dtd"
   xmlns:inkscape="http://www.inkscape.org/namespaces/inkscape"
   version="1.1"
   id="Layer_1"
   x="0px"
   y="0px"
   width="1000px"
   height="1000px"
   viewBox="0 0 1000 1000"
   enable-background="new 0 0 1000 1000"
   xml:space="preserve"
   sodipodi:docname="logo.svg"
   inkscape:export-filename="/home/felipewer/projects/saluthi/images/logo@2x.png"
   inkscape:export-xdpi="19.200001"
   inkscape:export-ydpi="19.200001"
   inkscape:version="0.92+devel unknown"><metadata
     id="metadata13"><rdf:RDF><cc:Work
         rdf:about=""><dc:format>image/svg+xml</dc:format><dc:type
           rdf:resource="http://purl.org/dc/dcmitype/StillImage" /></cc:Work></rdf:RDF></metadata><defs
     id="defs11" /><sodipodi:namedview
     pagecolor="#ffffff"
     bordercolor="#666666"
     inkscape:document-rotation="0"
     borderopacity="1"
     objecttolerance="10"
     gridtolerance="10"
     guidetolerance="10"
     inkscape:pageopacity="0"
     inkscape:pageshadow="2"
     inkscape:window-width="1366"
     inkscape:window-height="717"
     id="namedview9"
     showgrid="false"
     inkscape:zoom="0.489"
     inkscape:cx="500"
     inkscape:cy="418.20041"
     inkscape:window-x="0"
     inkscape:window-y="0"
     inkscape:window-maximized="1"
     inkscape:current-layer="Layer_1" /><g
     id="g6"
     transform="matrix(0.65452407,0,0,0.65452407,172.93698,172.73535)"><path
       d="m 135.213,974.11 24.883,-43.451 12.623,-22.046 12.655,-22.029 c 7.373,-12.542 14.614,-25.146 22.048,-37.66 1.227,-2.065 0,0 0,0 l -3.813,-6.064 c -1.452,-2.425 -2.829,-4.89 -4.233,-7.322 -1.355,-2.472 -2.599,-5.012 -3.888,-7.503 -1.252,-2.517 -2.389,-5.101 -3.576,-7.635 -1.148,-2.561 -2.172,-5.186 -3.251,-7.761 -1.04,-2.6 -1.944,-5.261 -2.91,-7.872 -0.903,-2.643 -1.668,-5.341 -2.497,-7.993 -0.774,-2.675 -1.419,-5.393 -2.127,-8.069 -0.642,-2.699 -1.167,-5.434 -1.746,-8.127 -0.515,-2.72 -0.875,-5.471 -1.309,-8.184 -0.343,-2.735 -0.602,-5.479 -0.896,-8.198 l -0.482,-8.194 -0.027,-8.171 c 0.108,-2.72 0.245,-5.426 0.408,-8.118 l 0.846,-8.041 1.232,7.94 1.572,7.824 1.908,7.696 2.221,7.56 2.555,7.408 2.877,7.245 c 1.061,2.371 2.051,4.754 3.15,7.087 1.164,2.312 2.252,4.638 3.459,6.906 1.262,2.248 2.443,4.515 3.75,6.718 1.334,2.194 2.588,4.411 3.967,6.56 1.42,2.126 2.766,4.28 4.229,6.365 1.504,2.063 2.938,4.151 4.478,6.171 1.579,1.998 3.106,4.013 4.702,5.978 l 4.869,5.82 5.075,5.624 5.266,5.434 5.16,5.323 -3.396,8.981 c -5.908,15.627 -18.387,47.134 -18.479,47.371 l 69.998,-29.773 12.742,7.288 c 36.039,20.624 76.244,34.296 117.488,41.799 20.559,3.928 41.645,6.238 62.455,6.938 l 7.571,0.225 3.782,-0.018 4.219,-0.141 h 8.49 2.122 1.062 0.266 c -1.061,0 -0.154,0.141 -0.326,0.136 l 0.492,0.06 3.939,-0.105 c 10.501,-0.313 20.982,-0.845 31.403,-1.886 20.849,-2.008 41.495,-5.41 61.683,-10.324 20.178,-4.93 39.921,-11.294 58.836,-19.261 18.892,-8 36.879,-17.672 53.665,-28.721 16.811,-11.051 31.8,-24.164 45.015,-38.394 12.934,-14.405 23.873,-30.271 31.133,-47.415 l 1.451,-3.182 c 0.478,-1.066 0.814,-2.167 1.236,-3.249 l 2.422,-6.523 c 1.234,-4.436 2.793,-8.831 3.617,-13.363 l 0.763,-3.383 c 0.118,-0.556 0.276,-1.148 0.366,-1.673 l 0.221,-1.516 c 0.3,-2.021 0.629,-4.042 0.992,-6.074 0.04,-0.27 0.098,-0.473 0.129,-0.798 l 0.072,-1.059 0.145,-2.118 0.291,-4.237 0.523,-4.239 c 0.014,-0.327 0.221,1.878 0.221,0.841 v -0.214 -0.436 -0.869 l -0.229,-1.743 c 0.391,-9.304 -0.657,-18.636 -2.292,-27.914 -1.529,-9.316 -4.489,-18.455 -7.911,-27.501 -6.799,-18.177 -17.605,-35.302 -30.424,-51.275 -3.338,-3.896 -6.583,-7.917 -10.219,-11.628 -1.776,-1.847 -3.543,-3.904 -5.34,-5.591 l -5.377,-5.267 -1.348,-1.326 -1.578,-1.395 -3.186,-2.822 -3.172,-2.837 -1.588,-1.419 -0.195,-0.173 c -0.146,-0.124 0.555,0.412 0.166,0.11 l -0.381,-0.315 -0.765,-0.631 c -4.083,-3.364 -8.126,-6.817 -12.437,-9.963 -8.438,-6.529 -17.434,-12.424 -26.553,-18.249 -4.653,-2.752 -9.235,-5.685 -14.047,-8.225 l -7.163,-3.943 -7.302,-3.729 c -19.508,-9.964 -40.103,-18.261 -61.332,-25.22 -21.277,-6.997 -43.076,-12.533 -65.538,-17.026 22.718,-1.479 45.888,-0.726 68.841,1.965 11.521,1.266 22.947,3.353 34.404,5.608 5.693,1.26 11.383,2.607 17.056,4.064 5.63,1.597 11.347,3.002 16.931,4.856 22.421,7.099 44.535,16.152 65.428,28.088 5.292,2.865 10.387,6.102 15.537,9.288 l 0.966,0.6 0.481,0.3 c -0.243,-0.197 0.613,0.436 0.6,0.423 l 0.221,0.15 1.765,1.187 3.527,2.377 3.519,2.393 1.766,1.218 1.884,1.431 7.54,5.761 c 2.57,1.918 4.766,3.926 7.17,5.895 4.786,3.869 9.246,8.167 13.799,12.387 8.837,8.734 17.394,17.948 24.871,28.227 7.527,10.201 14.576,20.978 20.312,32.643 5.782,11.606 10.663,23.865 14.015,36.669 3.42,12.759 5.817,25.968 6.469,39.316 l 0.154,2.499 0.072,1.251 0.035,0.629 0.018,0.312 c 0.023,-0.857 -0.006,1.525 -0.006,1.374 l -0.014,4.247 -0.016,4.247 -0.006,2.122 -0.007,1.063 -0.08,1.313 -0.834,10.809 -0.236,2.707 c -0.095,0.877 -0.235,1.67 -0.354,2.512 l -0.75,4.972 c -0.842,6.68 -2.514,13.161 -3.977,19.716 -0.891,3.221 -1.873,6.418 -2.826,9.626 -0.498,1.593 -0.928,3.223 -1.492,4.789 l -1.729,4.687 c -9.218,25.11 -23.384,47.681 -39.763,67.706 -4.273,4.807 -8.367,9.883 -12.972,14.326 l -6.771,6.841 -7.045,6.476 -3.535,3.232 -3.645,3.063 -7.324,6.09 c -2.473,1.979 -5.018,3.839 -7.527,5.761 -2.531,1.886 -5.014,3.867 -7.627,5.604 -20.557,14.571 -42.573,26.551 -65.261,36.472 -22.753,9.771 -46.235,17.4 -70.083,23.025 -23.846,5.632 -48.055,9.294 -72.326,11.046 -6.061,0.564 -12.141,0.694 -18.21,0.978 -6.073,0.359 -12.145,0.243 -18.212,0.283 l -4.553,0.007 -1.69,-0.012 -1.06,-0.033 -2.123,-0.071 -8.486,-0.282 -4.272,-0.151 -4.696,-0.296 -9.388,-0.629 c -24.392,-1.982 -48.312,-5.767 -72.006,-11.44 -23.623,-5.804 -46.798,-13.531 -69.233,-23.142 -18.632,-8.225 -36.664,-17.916 -53.86,-29.012 -3.427,-2.211 0,0 0,0"
       id="path2"
       inkscape:connector-curvature="0" /><path
       d="m 473.416,498.877 c -14.805,0.589 -29.783,0.434 -44.74,-0.617 -14.937,-1.136 -29.889,-3.03 -44.766,-5.776 -29.676,-5.721 -59.129,-14.631 -87.123,-27.814 -13.979,-6.586 -27.785,-13.919 -40.813,-22.711 l -1.24,-0.798 -1.479,-1.046 -2.273,-1.587 -4.545,-3.176 -2.273,-1.589 c -0.759,-0.531 -1.601,-1.219 -2.396,-1.82 l -4.848,-3.755 c -1.595,-1.262 -3.282,-2.505 -4.802,-3.792 l -4.552,-3.875 -4.553,-3.89 c -1.484,-1.342 -2.928,-2.731 -4.381,-4.114 -11.64,-11.026 -22.443,-23.238 -31.932,-36.701 -9.533,-13.427 -17.521,-28.237 -23.646,-44.014 -6.092,-15.774 -10.322,-32.554 -12.01,-49.704 l -0.438,-6.44 -0.207,-3.226 -0.1,-1.614 -0.051,-0.808 -0.023,-0.404 c 0,-0.575 -0.039,0.719 -0.004,-1.392 l -0.006,-11.08 c -0.038,-0.813 0.106,-2.183 0.166,-3.275 l 0.242,-3.472 0.547,-6.952 c 0.143,-2.407 0.556,-4.37 0.842,-6.565 l 0.962,-6.428 c 1.521,-8.52 3.472,-16.98 6.077,-25.217 1.154,-4.185 2.811,-8.147 4.294,-12.197 1.435,-4.081 3.239,-7.962 5.011,-11.871 7.137,-15.603 16.041,-30.207 26.151,-43.684 10.046,-13.555 21.601,-25.709 33.833,-36.824 12.255,-11.119 25.275,-21.191 38.831,-30.301 13.621,-8.992 27.849,-16.843 42.353,-23.969 14.543,-7.044 29.48,-13.045 44.602,-18.42 l 11.416,-3.765 c 3.801,-1.29 7.684,-2.235 11.523,-3.361 7.677,-2.285 15.467,-4.005 23.225,-5.909 l 11.71,-2.418 5.862,-1.188 5.888,-0.984 11.787,-1.934 11.83,-1.536 c 3.939,-0.558 7.894,-0.936 11.848,-1.287 3.957,-0.355 7.911,-0.775 11.872,-1.028 7.927,-0.342 15.852,-0.951 23.779,-0.939 l 5.946,-0.082 2.97,-0.039 1.488,-0.02 0.743,-0.009 1.324,0.016 11.07,0.243 5.567,0.132 6.149,0.335 12.283,0.711 c 15.813,1.369 31.625,3.068 47.264,6.1 15.646,2.897 31.205,6.416 46.516,10.978 7.699,2.1 15.255,4.776 22.852,7.257 7.51,2.811 15.031,5.542 22.385,8.797 7.426,3.031 14.666,6.578 21.932,10.019 7.154,3.734 14.35,7.343 21.305,11.507 7.051,3.937 13.852,8.407 20.653,12.825 l 9.962,7.059 c 3.287,2.404 6.474,4.982 9.706,7.471 12.776,10.201 24.897,21.384 36.035,33.657 11.202,12.211 21.034,25.879 29.563,40.383 8.469,14.546 15.49,30.129 20.346,46.474 4.816,16.346 7.527,33.373 7.908,50.373 l -0.011,6.373 -0.017,3.181 -0.011,1.588 -0.034,1.519 -0.032,0.347 -0.065,0.689 -1.037,11.035 -0.275,2.76 c -0.112,0.966 -0.352,2.18 -0.522,3.255 l -1.167,6.633 c -0.813,4.39 -1.525,8.914 -2.777,12.813 l -3.435,12.075 -4.423,11.673 c -1.368,3.927 -3.225,7.621 -5.023,11.329 l -2.726,5.541 -1.37,2.757 -1.564,2.646 -6.299,10.495 c -2.125,3.467 -4.629,6.661 -6.927,9.98 l -3.521,4.918 c -1.197,1.616 -2.541,3.113 -3.803,4.67 l -7.689,9.209 2.1,-18.684 17.84,44.25 17.482,44.424 9.961,25.308 -23.209,-10.544 -25.658,-11.658 -25.596,-11.842 -25.523,-12.039 c -8.49,-4.063 -16.963,-8.172 -25.408,-12.359 9.188,2.113 18.345,4.308 27.486,6.546 l 27.371,6.864 27.303,7.063 27.238,7.245 -13.248,14.765 -24.043,-41.245 -23.684,-41.419 -4.672,-8.172 6.77,-10.512 5.521,-8.565 c 0.898,-1.432 1.887,-2.812 2.712,-4.279 l 2.399,-4.437 c 1.548,-2.977 3.32,-5.829 4.688,-8.865 l 4.037,-9.09 1.007,-2.258 0.803,-2.334 1.62,-4.644 c 1.109,-3.076 2.297,-6.116 2.992,-9.293 l 2.472,-9.371 1.604,-9.489 c 0.709,-3.236 0.717,-6.078 0.969,-8.989 l 0.363,-4.334 c 0.054,-0.755 0.162,-1.361 0.178,-2.235 L 809.486,280.32 809,269.23 v -0.691 -0.348 c 0,2.146 0.443,0.426 0.426,0.828 l 0.126,-1.178 -0.097,-2.352 -0.351,-4.693 c -1.434,-12.469 -4.515,-24.638 -9.132,-36.258 -9.043,-23.337 -24.039,-44.447 -42.549,-62.576 -18.54,-18.176 -40.52,-33.303 -64.178,-45.689 -5.85,-3.203 -11.991,-5.934 -18.038,-8.806 -6.203,-2.603 -12.331,-5.332 -18.69,-7.605 -6.242,-2.516 -12.744,-4.437 -19.101,-6.688 -6.496,-1.915 -12.909,-4.047 -19.51,-5.651 C 591.718,80.414 564.598,76.671 537.4,74.55 l -9.829,-0.486 -4.908,-0.256 -5.503,-0.085 -11.071,-0.15 -9.668,0.219 c -6.844,0.025 -13.645,0.644 -20.465,0.969 l -10.191,0.875 c -3.398,0.27 -6.796,0.557 -10.17,1.018 l -10.145,1.224 -10.078,1.578 -5.039,0.789 -4.998,0.98 -9.994,1.97 c -13.25,2.918 -26.303,6.511 -39.174,10.554 -12.801,4.213 -25.424,8.907 -37.605,14.441 -12.157,5.559 -23.895,11.851 -35.23,18.647 -22.437,13.838 -42.979,30.439 -59.244,49.924 -8.184,9.688 -15.332,20.055 -21.135,30.989 -1.436,2.74 -2.946,5.458 -4.097,8.302 -1.202,2.822 -2.628,5.588 -3.563,8.494 -2.277,5.701 -4.092,11.541 -5.625,17.458 l -1.007,4.468 c -0.298,1.447 -0.792,3.08 -0.921,4.36 l -0.646,4.055 -0.352,2.034 c -0.103,0.743 -0.279,1.198 -0.32,2.236 l -0.803,11.05 -0.07,8.248 c 0.285,12.318 2.051,24.714 5.561,36.861 7.02,24.277 20.248,47.621 37.861,68.144 l 3.275,3.883 3.459,3.752 3.465,3.769 c 1.154,1.254 2.334,2.342 3.502,3.527 l 3.514,3.505 c 0.609,0.593 1.123,1.16 1.811,1.776 l 2.064,1.849 4.137,3.697 2.066,1.849 0.516,0.462 0.26,0.231 c 0.157,0.135 -0.447,-0.329 -0.074,-0.035 l 1.005,0.825 c 10.539,9.012 21.835,17.379 33.708,25.029 11.902,7.589 24.25,14.754 37.127,21.058 12.895,6.241 26.133,12.024 39.727,17.104 13.614,5.029 27.542,9.393 41.694,13.319 14.173,3.8 28.554,6.954 43.189,9.817 z"
       id="path4"
       inkscape:connector-curvature="0" /></g></svg>