<?xml version="1.0" encoding="UTF-8" standalone="no"?>
<!-- Generator: Adobe Illustrator 16.0.0, SVG Export Plug-In . SVG Version: 6.00 Build 0)  -->

<svg
   xmlns:dc="http://purl.org/dc/elements/1.1/"
   xmlns:cc="http://creativecommons.org/ns#"
   xmlns:rdf="http://www.w3.org/1999/02/22-rdf-syntax-ns#"
   xmlns:svg="http://www.w3.org/2000/svg"
   xmlns="http://www.w3.org/2000/svg"
   xmlns:sodipodi="http://sodipodi.sourceforge.net/DTD/sodipodi-0.dtd"
   xmlns:inkscape="http://www.inkscape.org/namespaces/inkscape"
   version="1.1"
   id="Layer_1"
   x="0px"
   y="0px"
   width="1000px"
   height="1000px"
   viewBox="0 0 1000 1000"
   enable-background="new 0 0 1000 1000"
   xml:space="preserve"
   sodipodi:docname="saluthi-dark.svg"
   inkscape:export-filename="/home/felipewer/projects/saluthi/images/logo-dark.png"
   inkscape:export-xdpi="9.6000004"
   inkscape:export-ydpi="9.6000004"
   inkscape:version="0.92+devel unknown"><metadata
     id="metadata11"><rdf:RDF><cc:Work
         rdf:about=""><dc:format>image/svg+xml</dc:format><dc:type
           rdf:resource="http://purl.org/dc/dcmitype/StillImage" /></cc:Work></rdf:RDF></metadata><defs
     id="defs9" /><sodipodi:namedview
     pagecolor="#ffffff"
     bordercolor="#666666"
     inkscape:document-rotation="0"
     borderopacity="1"
     objecttolerance="10"
     gridtolerance="10"
     guidetolerance="10"
     inkscape:pageopacity="0"
     inkscape:pageshadow="2"
     inkscape:window-width="1366"
     inkscape:window-height="717"
     id="namedview7"
     showgrid="false"
     inkscape:zoom="0.489"
     inkscape:cx="500"
     inkscape:cy="500"
     inkscape:window-x="0"
     inkscape:window-y="0"
     inkscape:window-maximized="1"
     inkscape:current-layer="Layer_1" /><g
     id="g15"
     transform="matrix(0.64966358,0,0,0.64966358,184.04067,175.56391)"><path
       id="path2"
       d="m 532.752,497.429 c 5.322,-1.064 10.564,-2.33 15.942,-3.151 5.421,-0.782 11.037,-1.695 16.489,-2.132 5.475,-0.478 11.034,-1.166 16.552,-1.268 l 8.337,-0.333 8.366,-0.07 c 11.195,-0.061 22.387,0.787 33.723,1.784 5.623,0.663 11.259,1.447 16.911,2.331 5.611,1.018 11.319,1.872 16.944,3.159 22.483,5.027 45.123,12.082 66.852,22.631 5.494,2.503 10.855,5.391 16.271,8.26 l 1.017,0.538 0.506,0.27 c -0.664,-0.521 1.195,0.867 1.078,0.766 l 0.216,0.118 1.724,0.957 3.448,1.912 c 1.153,0.631 2.272,1.308 3.41,1.96 0.578,0.345 1.103,0.627 1.731,1.021 l 2.082,1.403 8.339,5.699 2.068,1.443 1.899,1.409 3.806,2.84 c 5.133,3.7 10.017,7.879 14.977,12.009 2.467,2.082 4.816,4.355 7.231,6.554 2.427,2.189 4.772,4.47 7.013,6.914 l 6.8,7.259 6.502,7.703 c 8.489,10.493 16.541,21.766 23.329,34.214 6.725,12.421 12.51,25.731 16.698,39.815 4.239,14.023 7.384,28.708 8.541,43.615 l 0.234,2.794 0.116,1.401 0.058,0.698 0.029,0.352 c 0.047,-2.03 -0.032,3.17 -0.021,2.714 l 0.169,3.904 0.168,3.903 0.084,1.952 0.043,0.976 -0.043,1.546 c -0.149,4.329 -0.367,8.675 -0.656,13.027 l -0.23,3.265 c -0.09,1.036 -0.207,1.894 -0.313,2.853 l -0.701,5.608 c -0.838,7.526 -2.495,14.832 -4.038,22.221 -0.909,3.626 -1.925,7.224 -2.925,10.835 -0.522,1.794 -0.987,3.629 -1.573,5.391 l -1.818,5.263 c -4.81,14.127 -11.147,27.391 -18.209,40.016 -1.806,3.116 -3.672,6.201 -5.536,9.291 -1.929,3.008 -3.939,5.928 -5.934,8.885 l -3.016,4.414 -3.166,4.216 -6.418,8.385 c -17.74,21.53 -37.79,40.159 -59.282,55.47 -5.387,3.777 -10.759,7.656 -16.298,11.064 l -8.317,5.169 -8.432,4.819 c -11.269,6.395 -22.754,12.056 -34.429,17.193 -5.862,2.41 -11.718,4.896 -17.626,7.143 l -8.886,3.253 c -2.964,1.091 -5.926,2.162 -8.925,3.07 -5.991,1.859 -11.964,3.836 -18.001,5.395 l -9.04,2.455 c -3.015,0.813 -6.051,1.456 -9.075,2.184 l -9.086,2.099 -9.135,1.715 c -3.048,0.549 -6.091,1.158 -9.141,1.647 l -9.154,1.369 c -12.204,1.859 -24.452,3.041 -36.687,3.75 -12.234,0.755 -24.459,1.079 -36.646,0.769 l -4.568,-0.072 -0.569,-0.008 -1.547,-0.015 -0.244,-0.015 -0.972,-0.054 -1.947,-0.104 -7.785,-0.419 -3.957,-0.218 -4.898,-0.366 -9.783,-0.836 c -3.356,-0.261 -6.247,-0.682 -9.306,-1.047 l -9.075,-1.143 c -6.042,-0.879 -12.076,-1.851 -18.088,-2.876 -5.999,-1.236 -11.996,-2.363 -17.96,-3.73 -5.956,-1.471 -11.921,-2.718 -17.827,-4.413 -5.902,-1.683 -11.797,-3.307 -17.631,-5.268 l -8.753,-2.837 -8.686,-3.132 c -11.546,-4.217 -22.88,-9.188 -34.074,-14.383 -15.132,-7.46 -29.886,-15.848 -44.088,-25.237 -6.429,1.502 -17.16,4.005 -17.16,4.005 l -25.437,5.406 -12.72,2.7 c -4.247,0.882 -8.464,1.842 -12.733,2.658 l -119.638,22.901 61.019,-88.231 13.383,-19.355 c 4.503,-6.436 8.844,-12.942 13.472,-19.316 l 13.798,-19.153 6.146,-8.517 c 0,0 -1.746,-4.354 -2.789,-6.974 -1.014,-2.646 -1.914,-5.351 -2.853,-8.001 -0.904,-2.675 -1.682,-5.405 -2.503,-8.082 -0.784,-2.699 -1.451,-5.447 -2.139,-8.147 -0.621,-2.737 -1.108,-5.518 -1.644,-8.241 -0.488,-2.75 -0.848,-5.528 -1.254,-8.256 -0.351,-2.754 -0.585,-5.521 -0.86,-8.248 -0.212,-2.747 -0.237,-5.521 -0.347,-8.241 -0.017,-2.743 0.048,-5.481 0.084,-8.178 0.142,-2.72 0.291,-5.415 0.53,-8.09 l 1.027,-7.976 c 0.444,-2.639 0.944,-5.525 1.497,-8.104 l 1.966,-7.92 c 0,0 1.464,-2.938 4.214,-3 2.75,-0.062 4.401,3 4.401,3 l 0.269,7.392 0.609,7.233 0.955,7.119 1.297,7.026 1.625,6.939 c 0.653,2.278 1.26,4.576 1.952,6.843 0.761,2.244 1.462,4.511 2.265,6.739 0.864,2.208 1.662,4.442 2.575,6.63 0.959,2.166 1.852,4.365 2.862,6.507 1.054,2.125 2.038,4.282 3.145,6.379 1.145,2.081 2.222,4.192 3.412,6.246 1.229,2.031 2.396,4.092 3.664,6.1 1.308,1.98 2.566,3.994 3.908,5.952 l 4.131,5.802 4.348,5.648 4.55,5.491 2.368,2.859 -1.598,3.403 -19.753,42.111 -12.851,27.037 81.352,-29.737 3.396,-1.241 3.188,1.998 c 34.346,21.516 72.921,36.124 112.695,44.624 19.888,4.268 40.175,6.963 60.471,8.116 l 7.556,0.362 3.78,0.186 3.889,0.063 7.789,0.114 1.947,0.535 0.974,0.522 h 0.245 c -0.2,0 0.08,-0.512 0.096,-0.512 l 0.479,-0.262 3.82,-0.208 c 10.188,-0.124 20.372,-0.673 30.512,-1.563 20.29,-1.739 40.439,-4.999 60.192,-9.782 2.463,-0.614 4.951,-1.154 7.396,-1.839 l 7.336,-2.062 c 4.914,-1.282 9.714,-2.947 14.552,-4.474 4.859,-1.468 9.57,-3.35 14.367,-4.999 4.749,-1.771 9.419,-3.737 14.128,-5.612 18.62,-7.973 36.505,-17.603 53.155,-28.965 16.672,-11.334 31.833,-24.728 45.084,-39.681 12.963,-15.16 24.013,-32.003 31.24,-50.411 l 1.399,-3.43 c 0.459,-1.147 0.791,-2.335 1.193,-3.501 l 2.31,-7.025 c 1.174,-4.782 2.608,-9.509 3.335,-14.383 1.05,-4.877 1.416,-9.597 1.986,-14.351 0.215,-2.452 0.23,-5.149 0.357,-7.712 l 0.147,-3.894 -0.122,-3.406 c -0.049,-9.851 -1.418,-19.661 -3.549,-29.281 -2.046,-9.659 -5.38,-19.034 -9.347,-28.119 -7.972,-18.204 -19.511,-34.857 -33.006,-49.741 -3.482,-3.633 -6.867,-7.362 -10.599,-10.764 -3.604,-3.568 -7.398,-6.781 -11.162,-10.046 -1.808,-1.648 -3.995,-3.232 -5.992,-4.848 l -3.056,-2.415 -1.528,-1.208 -0.265,-0.201 -0.385,-0.278 -0.77,-0.555 c -4.113,-2.962 -8.182,-5.986 -12.467,-8.715 -16.922,-11.218 -35.033,-20.741 -53.885,-28.602 -18.828,-7.937 -38.436,-14.087 -58.408,-18.731 l -7.498,-1.718 -7.551,-1.483 c -5.023,-1.063 -10.105,-1.792 -15.172,-2.63 -5.073,-0.872 -10.133,-1.358 -15.207,-2.061 -5.108,-0.589 -10.323,-1.006 -15.48,-1.519 0,0 -1.886,-0.548 -2.23,-3.192 -0.445,-3.444 2.932,-5.39 2.932,-5.39 z"
       fill="#FFFFFF"
       inkscape:connector-curvature="0" /><path
       id="path4"
       d="m 473.878,503.227 c -6.942,1.136 -13.68,2.496 -20.874,3.119 -7.186,0.924 -14.264,1.234 -21.435,1.672 -7.148,0.257 -14.364,0.438 -21.565,0.166 -7.234,-0.105 -14.481,-0.52 -21.748,-1.14 -14.483,-1.424 -29.123,-3.479 -43.62,-6.821 -14.532,-3.241 -29.031,-7.511 -43.271,-13.017 -14.238,-5.496 -28.523,-11.76 -42.115,-19.822 l -1.292,-0.724 c 0.568,0.463 -1.141,-0.837 -1.061,-0.761 l -0.277,-0.162 -0.551,-0.327 -2.209,-1.304 -4.413,-2.608 -2.208,-1.304 c -0.738,-0.436 -1.733,-1.161 -2.587,-1.731 l -5.331,-3.675 c -1.743,-1.226 -3.626,-2.492 -5.258,-3.714 l -4.88,-3.681 -4.889,-3.714 c -1.61,-1.279 -3.146,-2.659 -4.716,-3.997 -12.534,-10.74 -24.421,-22.91 -35.123,-36.705 -10.795,-13.73 -19.878,-29.389 -27.201,-46.309 -1.717,-4.286 -3.47,-8.582 -5.067,-12.957 -1.449,-4.438 -2.926,-8.891 -4.25,-13.408 -1.162,-4.564 -2.338,-9.153 -3.374,-13.786 -0.842,-4.665 -1.604,-9.368 -2.295,-14.088 l -0.701,-7.116 -0.323,-3.57 -0.156,-1.788 -0.076,-0.896 -0.037,-0.445 c 0.007,-1.14 -0.069,1.914 0.004,-2.666 l -0.479,-10.185 -0.029,-0.638 0.025,-0.99 0.066,-2.063 0.169,-4.136 0.463,-8.292 0.141,-2.074 0.196,-1.811 0.411,-3.586 0.884,-7.189 c 1.443,-9.516 3.297,-19.019 6.032,-28.199 1.217,-4.678 2.897,-9.09 4.456,-13.609 1.519,-4.552 3.379,-8.868 5.237,-13.218 7.476,-17.349 16.84,-33.488 27.42,-48.294 21.295,-29.663 47.678,-53.154 75.589,-72.577 14.067,-9.522 28.636,-17.906 43.469,-25.455 14.888,-7.43 30.143,-13.66 45.536,-19.276 15.438,-5.439 31.112,-9.823 46.862,-13.601 3.941,-0.888 7.893,-1.729 11.853,-2.528 l 5.941,-1.199 5.954,-1.002 11.923,-1.952 11.947,-1.557 c 7.965,-1.087 15.952,-1.653 23.937,-2.292 7.984,-0.36 15.978,-0.947 23.95,-0.949 l 5.983,-0.082 2.991,-0.036 1.496,-0.017 0.749,-0.009 2.031,0.023 10.155,0.269 5.149,0.172 6.44,0.381 12.848,0.839 c 15.938,1.464 31.85,3.411 47.64,6.575 3.956,0.678 7.893,1.557 11.827,2.428 3.934,0.892 7.874,1.674 11.789,2.68 7.82,2.066 15.626,4.095 23.359,6.58 7.766,2.263 15.434,5.086 23.104,7.745 7.6,3.033 15.208,5.911 22.682,9.358 7.52,3.222 14.907,6.949 22.277,10.614 7.278,3.994 14.555,7.881 21.647,12.33 3.561,2.163 7.123,4.306 10.603,6.687 3.482,2.356 7.012,4.582 10.411,7.088 l 10.153,7.598 c 3.351,2.587 6.626,5.355 9.917,8.039 13.066,10.985 25.51,23.043 36.995,36.339 2.818,3.405 5.658,6.781 8.389,10.235 l 7.818,10.849 c 5.019,7.434 9.829,15.031 14.146,23.063 8.652,15.978 15.918,33.124 20.588,51.21 4.657,18.068 6.996,36.879 6.761,55.479 l -0.248,6.962 -0.147,3.469 -0.08,1.731 -0.084,2.956 -0.047,0.317 -0.092,0.631 c -0.476,3.367 -1.021,6.731 -1.591,10.096 l -0.421,2.524 -0.688,3.668 -1.55,7.629 c -1.083,5.023 -2.176,10.309 -3.654,14.341 -1.395,4.316 -2.819,8.601 -4.271,12.846 -1.708,4.143 -3.483,8.236 -5.259,12.3 -1.679,4.123 -3.786,7.977 -5.885,11.817 l -3.211,5.714 -1.61,2.836 -1.783,2.703 -7.195,10.664 c -2.429,3.501 -5.184,6.694 -7.769,10.004 l -2.957,3.672 4.25,13.803 6.168,21.28 c 2.019,7.111 4.195,14.146 6.084,21.32 l 17.329,65.736 -50.057,-29.265 -22.638,-13.234 c -3.771,-2.217 -7.502,-4.533 -11.258,-6.794 l -11.245,-6.823 c -3.759,-2.247 -7.459,-4.658 -11.19,-6.979 -3.72,-2.352 -7.458,-4.659 -11.165,-7.051 l -11.101,-7.227 -11.021,-7.455 c 0,0 -2.413,-2.742 -1.413,-5.326 1,-2.584 4.313,-2.785 4.313,-2.785 l 84.772,29.225 -33.053,-66.274 -1.716,-3.443 2.485,-3.399 5.807,-7.936 c 0.95,-1.332 1.977,-2.613 2.866,-3.986 l 2.591,-4.163 c 1.682,-2.797 3.566,-5.486 5.085,-8.367 l 4.506,-8.677 1.123,-2.168 0.938,-2.25 1.883,-4.498 c 1.26,-2.993 2.589,-5.965 3.467,-9.09 l 2.97,-9.255 2.139,-9.468 c 0.855,-3.164 1.117,-6.281 1.558,-9.404 l 0.637,-4.678 c 0.094,-0.791 0.245,-1.535 0.297,-2.364 l 0.101,-2.539 0.406,-10.152 0.025,-0.636 0.015,-0.315 c -0.013,0.555 -0.013,-0.021 -0.017,0.025 l -0.055,-1.208 -0.105,-2.418 -0.204,-4.834 c -0.882,-12.869 -3.507,-25.594 -7.714,-37.798 -8.405,-24.459 -23.029,-46.63 -41.104,-65.463 -18.152,-18.817 -39.486,-34.704 -62.65,-47.327 -5.724,-3.281 -11.703,-6.102 -17.611,-9.045 -6.037,-2.692 -12.026,-5.492 -18.209,-7.854 -6.095,-2.575 -12.393,-4.645 -18.611,-6.904 -6.33,-1.954 -12.597,-4.101 -19.021,-5.746 -25.524,-7.172 -51.875,-11.333 -78.34,-13.336 l -9.849,-0.511 -4.924,-0.257 -5.07,-0.09 -10.16,-0.158 -9.816,0.183 c -6.646,0.017 -13.262,0.589 -19.893,0.9 -3.311,0.238 -6.611,0.593 -9.916,0.871 -3.309,0.271 -6.612,0.562 -9.899,1.014 l -9.876,1.218 -9.827,1.559 -4.91,0.782 -4.88,0.965 -9.751,1.95 c -12.932,2.909 -25.738,6.348 -38.31,10.5 -12.523,4.271 -24.881,9.036 -36.849,14.635 -11.936,5.65 -23.547,11.944 -34.692,18.956 -11.07,7.123 -21.643,14.972 -31.523,23.571 -9.896,8.582 -19.057,17.982 -27.114,28.202 -16.213,20.333 -28.168,43.958 -33.5,69.14 -0.545,3.146 -1.284,6.335 -1.686,9.453 -0.329,3.13 -0.765,6.152 -1.046,9.372 l -0.432,10.154 0.27,9.375 c 0.774,12.848 3.301,25.59 7.426,37.845 8.229,24.565 22.805,46.932 40.859,65.969 9.077,9.58 18.78,18.183 29.444,26.32 10.514,8.015 21.672,15.229 33.23,21.758 11.579,6.499 23.546,12.378 35.88,17.433 12.338,5.043 24.963,9.419 37.785,13.184 12.854,3.668 25.907,6.654 39.07,9.1 13.232,2.352 26.322,3.99 39.922,5.195 0,0 2.577,1.241 2.667,3.925 0.09,2.684 -3.407,4.666 -3.407,4.666 z"
       fill="#FFFFFF"
       inkscape:connector-curvature="0" /></g></svg>