<?xml version="1.0" encoding="UTF-8" standalone="no"?>
<!-- Generator: Adobe Illustrator 16.0.0, SVG Export Plug-In . SVG Version: 6.00 Build 0)  -->

<svg
   xmlns:dc="http://purl.org/dc/elements/1.1/"
   xmlns:cc="http://creativecommons.org/ns#"
   xmlns:rdf="http://www.w3.org/1999/02/22-rdf-syntax-ns#"
   xmlns:svg="http://www.w3.org/2000/svg"
   xmlns="http://www.w3.org/2000/svg"
   xmlns:sodipodi="http://sodipodi.sourceforge.net/DTD/sodipodi-0.dtd"
   xmlns:inkscape="http://www.inkscape.org/namespaces/inkscape"
   version="1.1"
   id="Layer_1"
   x="0px"
   y="0px"
   width="1000"
   height="400"
   viewBox="0 0 1000 400"
   enable-background="new 0 0 1000 1000"
   xml:space="preserve"
   sodipodi:docname="slider-logo.svg"
   inkscape:version="0.92+devel unknown"><metadata
     id="metadata69"><rdf:RDF><cc:Work
         rdf:about=""><dc:format>image/svg+xml</dc:format><dc:type
           rdf:resource="http://purl.org/dc/dcmitype/StillImage" /><dc:title></dc:title></cc:Work></rdf:RDF></metadata><defs
     id="defs67" /><sodipodi:namedview
     pagecolor="#ffffff"
     bordercolor="#666666"
     inkscape:document-rotation="0"
     borderopacity="1"
     objecttolerance="10"
     gridtolerance="10"
     guidetolerance="10"
     inkscape:pageopacity="0"
     inkscape:pageshadow="2"
     inkscape:window-width="1366"
     inkscape:window-height="717"
     id="namedview65"
     showgrid="false"
     inkscape:zoom="0.538"
     inkscape:cx="500"
     inkscape:cy="244.9237"
     inkscape:window-x="0"
     inkscape:window-y="0"
     inkscape:window-maximized="1"
     inkscape:current-layer="Layer_1" /><g
     id="g62"
     transform="matrix(1.0066487,0,0,1,-5.0332467,-270.99452)"><g
       id="g6"><path
         fill="#FFFFFF"
         d="m 121.535,469.912 c 1.436,-0.286 2.847,-0.627 4.297,-0.85 1.46,-0.209 2.973,-0.455 4.442,-0.573 1.476,-0.13 2.976,-0.314 4.462,-0.342 l 2.245,-0.091 2.255,-0.018 c 3.017,-0.018 6.03,0.212 9.086,0.48 1.515,0.178 3.032,0.39 4.557,0.627 1.512,0.274 3.048,0.507 4.563,0.852 6.06,1.355 12.161,3.257 18.015,6.099 1.479,0.674 2.925,1.453 4.383,2.226 l 0.274,0.146 0.137,0.073 c -0.179,-0.143 0.322,0.232 0.289,0.204 l 0.06,0.033 0.463,0.258 0.93,0.515 c 0.312,0.17 0.613,0.354 0.92,0.527 0.154,0.094 0.296,0.169 0.467,0.275 l 0.559,0.379 2.247,1.536 0.559,0.388 0.511,0.378 1.026,0.768 c 1.382,0.997 2.698,2.122 4.035,3.236 0.665,0.56 1.298,1.173 1.947,1.765 0.655,0.592 1.288,1.205 1.89,1.864 l 1.832,1.955 1.754,2.075 c 2.288,2.827 4.456,5.865 6.284,9.218 1.813,3.349 3.373,6.935 4.5,10.731 1.143,3.778 1.99,7.734 2.301,11.75 l 0.065,0.753 0.028,0.377 0.018,0.188 0.008,0.096 c 0.011,-0.548 -0.008,0.854 -0.006,0.73 l 0.046,1.053 0.044,1.05 0.023,0.527 0.011,0.263 -0.011,0.415 c -0.04,1.167 -0.1,2.34 -0.177,3.511 l -0.062,0.882 c -0.025,0.278 -0.058,0.51 -0.084,0.769 l -0.188,1.512 c -0.226,2.027 -0.674,3.996 -1.088,5.985 -0.244,0.979 -0.519,1.946 -0.788,2.92 -0.143,0.483 -0.267,0.98 -0.424,1.453 l -0.492,1.418 c -1.294,3.805 -3.001,7.382 -4.905,10.782 -0.486,0.838 -0.99,1.671 -1.491,2.503 -0.521,0.81 -1.062,1.597 -1.6,2.395 l -0.813,1.187 -0.853,1.138 -1.729,2.261 c -4.782,5.801 -10.183,10.818 -15.976,14.945 -1.45,1.016 -2.898,2.063 -4.39,2.98 l -2.241,1.393 -2.273,1.299 c -3.034,1.725 -6.132,3.25 -9.276,4.634 -1.581,0.647 -3.158,1.319 -4.75,1.923 l -2.395,0.878 c -0.799,0.293 -1.598,0.583 -2.405,0.828 -1.613,0.498 -3.225,1.032 -4.849,1.452 l -2.436,0.662 c -0.812,0.219 -1.63,0.394 -2.447,0.589 l -2.447,0.565 -2.46,0.461 c -0.822,0.147 -1.645,0.311 -2.464,0.446 l -2.466,0.368 c -3.29,0.499 -6.59,0.817 -9.888,1.01 -3.295,0.202 -6.589,0.696 -9.874,0.613 l -1.227,0.39 h -0.152 l -0.418,-0.414 -0.065,-0.208 -0.261,-0.118 -0.524,-0.079 -2.1,-0.135 -1.066,-0.076 -1.317,-0.104 -2.637,-0.228 c -0.907,-0.069 -1.685,-0.186 -2.508,-0.282 l -2.445,-0.309 c -1.629,-0.24 -3.253,-0.499 -4.874,-0.777 -1.616,-0.333 -3.23,-0.636 -4.838,-1.005 -1.605,-0.396 -3.211,-0.733 -4.803,-1.188 -1.591,-0.454 -3.181,-0.891 -4.751,-1.419 l -2.359,-0.765 -2.341,-0.843 c -3.112,-1.137 -6.166,-2.478 -9.18,-3.878 -4.078,-2.011 -8.052,-4.27 -11.881,-6.799 -1.733,0.404 -4.623,1.08 -4.623,1.08 l -6.854,1.455 -3.426,0.728 c -1.145,0.238 -2.28,0.495 -3.43,0.717 L 5,597.523 21.442,573.75 l 3.605,-5.217 c 1.214,-1.731 2.384,-3.487 3.63,-5.203 l 3.718,-5.161 1.655,-2.296 c 0,0 -0.47,-1.172 -0.751,-1.88 -0.272,-0.711 -0.517,-1.44 -0.77,-2.155 -0.242,-0.72 -0.451,-1.455 -0.672,-2.178 -0.213,-0.726 -0.391,-1.468 -0.578,-2.194 -0.166,-0.736 -0.298,-1.487 -0.442,-2.221 -0.132,-0.741 -0.229,-1.489 -0.339,-2.224 -0.095,-0.742 -0.156,-1.486 -0.231,-2.223 -0.055,-0.742 -0.063,-1.486 -0.094,-2.221 -0.002,-0.74 0.014,-1.477 0.023,-2.205 0.039,-0.731 0.079,-1.459 0.144,-2.18 l 0.276,-2.147 c 0.119,-0.712 0.253,-1.487 0.403,-2.183 l 0.53,-2.136 c 0,0 0.394,-0.792 1.135,-0.808 0.741,-0.016 1.187,0.808 1.187,0.808 l 0.072,1.994 0.165,1.946 0.257,1.922 0.35,1.89 0.438,1.87 c 0.175,0.614 0.339,1.232 0.526,1.843 0.204,0.605 0.394,1.217 0.609,1.818 0.232,0.595 0.45,1.195 0.696,1.785 0.257,0.585 0.497,1.177 0.77,1.752 0.285,0.574 0.55,1.155 0.848,1.721 0.307,0.562 0.599,1.129 0.919,1.683 0.333,0.548 0.646,1.102 0.985,1.644 0.354,0.534 0.693,1.075 1.057,1.604 l 1.112,1.563 1.169,1.521 1.228,1.479 0.638,0.771 -0.43,0.915 -5.322,11.348 -3.463,7.285 21.922,-8.011 0.912,-0.337 0.86,0.538 c 9.256,5.799 19.648,9.735 30.366,12.024 5.36,1.152 10.826,1.877 16.293,2.188 l 2.036,0.097 1.018,0.052 1.049,-0.325 2.1,-0.309 h 0.524 0.264 0.064 c -0.053,0 0.021,0 0.025,0 h 0.13 l 1.029,0.324 c 2.743,-0.035 5.49,0.007 8.222,-0.232 5.466,-0.47 10.896,-1.255 16.217,-2.542 0.663,-0.165 1.335,-0.266 1.992,-0.448 l 1.978,-0.529 c 1.323,-0.35 2.618,-0.785 3.919,-1.197 1.311,-0.395 2.578,-0.896 3.871,-1.34 1.281,-0.478 2.539,-1.004 3.808,-1.51 5.017,-2.148 9.835,-4.74 14.322,-7.805 4.493,-3.053 8.577,-6.66 12.147,-10.69 3.494,-4.084 6.47,-8.622 8.418,-13.582 l 0.377,-0.924 c 0.125,-0.311 0.215,-0.63 0.322,-0.945 l 0.623,-1.892 c 0.315,-1.289 0.703,-2.562 0.897,-3.875 0.284,-1.313 0.382,-2.586 0.536,-3.866 0.057,-0.661 0.063,-1.389 0.097,-2.079 l 0.039,-1.05 -0.033,-0.915 c -0.013,-2.654 -0.382,-5.298 -0.956,-7.891 -0.551,-2.604 -1.448,-5.131 -2.518,-7.577 -2.149,-4.905 -5.257,-9.394 -8.894,-13.401 -0.939,-0.981 -1.85,-1.987 -2.855,-2.9 -0.972,-0.961 -1.993,-1.828 -3.007,-2.708 -0.488,-0.444 -1.078,-0.871 -1.614,-1.307 l -0.824,-0.65 -0.413,-0.326 -0.071,-0.054 -0.106,-0.073 -0.206,-0.149 c -1.108,-0.799 -2.205,-1.613 -3.359,-2.35 -4.559,-3.023 -9.44,-5.59 -14.52,-7.707 -5.074,-2.138 -10.357,-3.795 -15.737,-5.047 l -2.021,-0.462 -2.034,-0.399 c -1.355,-0.288 -2.725,-0.483 -4.089,-0.708 -1.367,-0.237 -2.731,-0.367 -4.098,-0.557 -1.375,-0.159 -2.781,-0.271 -4.171,-0.409 0,0 -0.507,-0.149 -0.6,-0.861 -0.121,-0.928 0.789,-1.452 0.789,-1.452 z"
         id="path2"
         inkscape:connector-curvature="0" /><path
         fill="#FFFFFF"
         d="m 101.81,471.475 c -1.871,0.306 -3.686,0.673 -5.626,0.84 -1.936,0.25 -3.843,0.334 -5.775,0.45 -1.926,0.07 -3.869,0.118 -5.809,0.045 -1.95,-0.026 -3.903,-0.139 -5.862,-0.307 -3.901,-0.383 -7.846,-0.938 -11.754,-1.836 -3.914,-0.875 -7.82,-2.025 -11.657,-3.509 -3.835,-1.481 -7.687,-3.168 -11.348,-5.342 l -0.35,-0.195 c 0.154,0.126 -0.305,-0.224 -0.284,-0.204 l -0.077,-0.044 -0.147,-0.089 -0.596,-0.352 -1.189,-0.702 -0.595,-0.35 c -0.2,-0.119 -0.467,-0.313 -0.695,-0.467 l -1.437,-0.991 c -0.47,-0.328 -0.978,-0.672 -1.417,-1 l -1.316,-0.993 -1.315,-0.999 c -0.435,-0.346 -0.849,-0.717 -1.272,-1.077 -3.378,-2.895 -6.58,-6.174 -9.465,-9.892 -2.907,-3.699 -5.354,-7.916 -7.329,-12.476 -0.463,-1.156 -0.934,-2.314 -1.366,-3.492 -0.39,-1.196 -0.787,-2.396 -1.145,-3.615 -0.313,-1.229 -0.629,-2.466 -0.91,-3.714 -0.225,-1.256 -0.432,-2.521 -0.617,-3.794 l -0.19,-1.918 -0.086,-0.962 -0.042,-0.482 -0.02,-0.242 -0.009,-0.119 c 0,-0.307 -0.021,0.516 0,-0.718 l -0.128,-2.745 -0.008,-0.17 0.005,-0.269 0.017,-0.554 0.046,-1.116 0.124,-2.234 0.037,-0.558 0.054,-0.49 0.112,-0.964 0.237,-1.938 c 0.388,-2.564 0.888,-5.125 1.625,-7.601 0.328,-1.258 0.782,-2.449 1.202,-3.664 0.41,-1.225 0.911,-2.389 1.412,-3.563 2.013,-4.674 4.537,-9.022 7.387,-13.012 5.737,-7.993 12.847,-14.321 20.366,-19.556 3.789,-2.565 7.719,-4.824 11.713,-6.857 4.011,-2.004 8.121,-3.682 12.269,-5.196 4.162,-1.465 8.384,-2.646 12.628,-3.663 1.063,-0.239 2.128,-0.465 3.194,-0.684 l 1.6,-0.321 1.605,-0.269 3.211,-0.527 3.221,-0.42 c 2.145,-0.292 4.298,-0.446 6.449,-0.616 2.151,-0.097 4.306,-0.256 6.453,-0.256 l 1.612,-0.021 0.806,0.663 0.403,0.671 h 0.202 l 0.547,-0.671 2.735,-0.265 1.389,-0.119 1.736,0.015 3.461,0.186 c 4.294,0.394 8.581,0.897 12.837,1.749 1.064,0.182 2.125,0.411 3.186,0.646 1.058,0.239 2.12,0.443 3.174,0.714 2.109,0.557 4.212,1.105 6.296,1.773 2.093,0.609 4.158,1.368 6.225,2.082 2.049,0.818 4.099,1.592 6.113,2.522 2.024,0.868 4.016,1.871 6.001,2.858 1.961,1.077 3.922,2.124 5.833,3.322 0.959,0.582 1.919,1.16 2.858,1.804 0.937,0.636 1.886,1.233 2.804,1.911 l 2.734,2.045 c 0.903,0.698 1.786,1.442 2.671,2.166 3.521,2.96 6.876,6.21 9.97,9.792 0.759,0.919 1.525,1.826 2.261,2.758 l 2.105,2.922 c 1.354,2.005 2.65,4.05 3.813,6.214 2.332,4.307 4.289,8.928 5.548,13.801 1.255,4.867 1.884,9.937 1.823,14.946 l -0.07,1.877 -0.038,0.936 -0.023,0.465 -0.021,0.8 -0.013,0.084 -0.025,0.171 c -0.128,0.906 -0.275,1.812 -0.428,2.72 l -0.113,0.678 -0.184,0.991 -0.419,2.055 c -0.292,1.353 -0.586,2.776 -0.985,3.864 -0.376,1.162 -0.759,2.318 -1.15,3.461 -0.461,1.117 -0.939,2.221 -1.417,3.313 -0.452,1.113 -1.02,2.151 -1.587,3.187 l -0.862,1.541 -0.434,0.762 -0.482,0.729 -1.938,2.872 c -0.655,0.945 -1.396,1.807 -2.093,2.697 l -0.797,0.988 1.145,3.721 1.661,5.733 c 0.545,1.917 1.131,3.811 1.641,5.744 l 4.668,17.712 -13.486,-7.884 -6.102,-3.566 c -1.014,-0.596 -2.02,-1.222 -3.032,-1.831 l -3.031,-1.838 c -1.012,-0.604 -2.009,-1.256 -3.013,-1.882 -1.002,-0.632 -2.009,-1.255 -3.01,-1.897 l -2.99,-1.947 -2.97,-2.01 c 0,0 -0.649,-0.739 -0.382,-1.437 0.271,-0.694 1.164,-0.749 1.164,-0.749 l 22.842,7.875 -8.906,-17.858 -0.462,-0.928 0.668,-0.916 1.565,-2.137 c 0.255,-0.358 0.532,-0.702 0.772,-1.075 l 0.699,-1.123 c 0.451,-0.752 0.96,-1.476 1.369,-2.255 l 1.214,-2.336 0.303,-0.584 0.252,-0.607 0.507,-1.212 c 0.34,-0.805 0.699,-1.607 0.936,-2.448 l 0.801,-2.495 0.576,-2.55 c 0.23,-0.854 0.299,-1.693 0.418,-2.534 l 0.171,-1.262 c 0.027,-0.212 0.067,-0.412 0.081,-0.636 l 0.027,-0.684 0.109,-2.736 0.005,-0.172 0.006,-0.086 c -0.004,0.15 -0.004,-0.004 -0.006,0.01 l -0.013,-0.327 -0.027,-0.65 -0.056,-1.303 c -0.238,-3.469 -0.947,-6.896 -2.078,-10.185 -2.267,-6.592 -6.208,-12.565 -11.078,-17.641 -4.89,-5.069 -10.641,-9.349 -16.88,-12.75 -1.542,-0.885 -3.156,-1.646 -4.746,-2.438 -1.626,-0.726 -3.24,-1.48 -4.906,-2.114 -1.642,-0.695 -3.339,-1.254 -5.013,-1.861 -1.708,-0.527 -3.394,-1.105 -5.126,-1.548 -6.877,-1.934 -13.978,-3.057 -21.109,-3.594 l -2.654,-0.138 -1.327,-0.07 -1.364,-0.024 -2.738,-0.041 -2.646,0.047 c -1.788,0.007 -3.572,0.159 -5.359,0.241 -0.891,0.067 -1.782,0.162 -2.671,0.237 -0.893,0.073 -1.783,0.151 -2.667,0.273 l -2.662,0.328 -2.646,0.42 -1.323,0.212 -1.316,0.259 -2.627,0.527 c -3.484,0.782 -6.934,1.708 -10.324,2.828 -3.374,1.15 -6.703,2.435 -9.927,3.942 -3.217,1.521 -6.345,3.22 -9.348,5.106 -2.984,1.921 -5.833,4.036 -8.495,6.353 -2.666,2.313 -5.134,4.846 -7.306,7.6 -4.367,5.478 -7.59,11.845 -9.027,18.628 -0.146,0.849 -0.344,1.709 -0.453,2.549 -0.088,0.843 -0.206,1.657 -0.283,2.524 l -0.115,2.736 0.073,2.525 c 0.207,3.462 0.887,6.896 2,10.198 2.218,6.62 6.146,12.646 11.011,17.774 2.444,2.581 5.061,4.899 7.932,7.091 2.833,2.162 5.84,4.104 8.956,5.865 3.119,1.75 6.344,3.336 9.668,4.696 3.322,1.36 6.726,2.537 10.179,3.554 3.465,0.988 6.981,1.792 10.528,2.452 3.565,0.632 7.093,1.073 10.758,1.398 0,0 0.693,0.333 0.718,1.058 0.022,0.724 -0.918,1.257 -0.918,1.257 z"
         id="path4"
         inkscape:connector-curvature="0" /></g><g
       id="g60"><g
         id="g42"><path
           fill="#FFFFFF"
           d="m 283.011,571.716 c 0.327,-0.589 0.72,-1.096 1.18,-1.522 0.457,-0.426 0.851,-0.936 1.179,-1.525 0.458,-0.72 0.853,-1.439 1.181,-2.162 0.327,-0.72 0.655,-1.441 0.983,-2.165 0.785,-1.506 1.556,-2.98 2.31,-4.425 0.753,-1.441 1.656,-2.817 2.705,-4.129 1.966,-2.36 4.327,-4.063 7.079,-5.113 1.182,-0.524 2.491,-0.838 3.934,-0.935 1.442,-0.098 2.719,0.245 3.835,1.033 0.787,0.59 1.427,1.442 1.919,2.556 0.492,1.116 0.737,2.231 0.737,3.344 0,1.116 -0.296,2.1 -0.886,2.951 -0.589,0.853 -1.542,1.277 -2.852,1.277 -1.179,0 -2.394,0.229 -3.638,0.688 -1.509,0.524 -2.95,1.197 -4.327,2.015 -1.376,0.822 -2.721,1.721 -4.031,2.705 -1.313,1.115 -2.59,2.327 -3.835,3.639 -1.247,1.313 -2.36,2.654 -3.343,4.032 -0.329,0.589 -0.772,1.032 -1.328,1.327 -0.559,0.295 -1.166,0.279 -1.818,-0.049 -0.657,-0.328 -1.083,-0.838 -1.279,-1.525 -0.196,-0.687 -0.099,-1.36 0.295,-2.017 z"
           id="path8"
           inkscape:connector-curvature="0" /><path
           fill="#FFFFFF"
           d="m 306.808,573.094 c -0.723,1.441 -1.395,2.869 -2.018,4.276 -0.624,1.412 -1.229,2.87 -1.82,4.378 -0.196,0.524 -0.476,1.162 -0.833,1.917 -0.362,0.753 -0.69,1.524 -0.984,2.311 -0.296,0.786 -0.51,1.524 -0.641,2.212 -0.131,0.689 -0.033,1.165 0.296,1.427 0.524,0.459 1.377,0.263 2.558,-0.59 1.179,-0.853 2.392,-1.919 3.638,-3.195 1.245,-1.279 2.394,-2.541 3.441,-3.788 1.049,-1.244 1.704,-2.03 1.967,-2.358 0.918,-1.182 1.786,-2.36 2.604,-3.541 0.819,-1.179 1.625,-2.392 2.41,-3.639 0.261,-0.393 0.555,-0.867 0.885,-1.424 0.326,-0.558 0.721,-1.034 1.179,-1.427 0.458,-0.395 0.933,-0.623 1.425,-0.688 0.492,-0.065 1.033,0.229 1.625,0.885 0.718,0.853 0.818,1.736 0.293,2.653 -0.524,0.919 -1.016,1.74 -1.474,2.46 -2.034,3.015 -4.132,5.736 -6.294,8.162 -2.162,2.426 -4.392,4.687 -6.688,6.783 -0.983,0.92 -2.082,1.836 -3.292,2.754 -1.214,0.918 -2.543,1.44 -3.984,1.573 -1.115,0.131 -2.099,0 -2.949,-0.394 -0.853,-0.393 -1.608,-0.934 -2.263,-1.621 -0.653,-0.689 -1.212,-1.476 -1.671,-2.36 -0.457,-0.885 -0.818,-1.786 -1.083,-2.704 -0.458,-1.378 -0.623,-2.885 -0.492,-4.522 0.134,-1.64 0.411,-3.262 0.837,-4.87 0.426,-1.604 0.95,-3.178 1.573,-4.719 0.622,-1.54 1.196,-2.965 1.72,-4.278 1.047,-2.62 1.919,-4.77 2.607,-6.44 0.688,-1.672 1.26,-3 1.72,-3.983 0.458,-0.983 0.835,-1.72 1.13,-2.212 0.295,-0.491 0.642,-0.9 1.033,-1.229 1.114,-0.984 2.328,-1.441 3.638,-1.378 1.312,0.067 2.473,0.476 3.491,1.229 1.017,0.754 1.736,1.755 2.163,3 0.427,1.246 0.311,2.557 -0.342,3.933 z m 1.57,-31.565 c 0,-1.771 0.642,-3.295 1.919,-4.573 1.277,-1.277 2.768,-1.917 4.473,-1.917 1.771,0 3.295,0.64 4.575,1.917 1.277,1.278 1.917,2.802 1.917,4.573 0,1.704 -0.64,3.194 -1.917,4.474 -1.279,1.277 -2.804,1.917 -4.575,1.917 -1.706,0 -3.196,-0.64 -4.473,-1.917 -1.277,-1.279 -1.919,-2.77 -1.919,-4.474 z"
           id="path10"
           inkscape:connector-curvature="0" /><path
           fill="#FFFFFF"
           d="m 369.248,541.037 c -1.903,3.539 -3.736,7.048 -5.506,10.521 -1.771,3.477 -3.477,6.983 -5.112,10.522 -1.118,2.296 -2.165,4.62 -3.148,6.981 -0.983,2.36 -1.934,4.754 -2.852,7.179 -0.329,0.853 -0.723,1.867 -1.18,3.048 -0.461,1.18 -0.886,2.408 -1.279,3.688 -0.392,1.275 -0.688,2.506 -0.883,3.687 -0.197,1.18 -0.197,2.163 0,2.95 0.849,-0.328 1.736,-0.936 2.654,-1.818 0.918,-0.887 1.819,-1.87 2.704,-2.95 0.884,-1.084 1.721,-2.181 2.508,-3.296 0.786,-1.114 1.44,-2.064 1.967,-2.851 0.849,-1.312 1.686,-2.622 2.507,-3.933 0.82,-1.312 1.623,-2.622 2.41,-3.935 0.326,-0.523 0.785,-0.917 1.375,-1.18 0.591,-0.261 1.147,-0.377 1.671,-0.344 0.526,0.033 0.968,0.263 1.329,0.688 0.359,0.428 0.442,1.068 0.246,1.918 -0.33,1.246 -1,2.506 -2.017,3.785 -1.018,1.28 -1.886,2.443 -2.604,3.492 -1.051,1.572 -2.165,3.081 -3.346,4.522 -1.18,1.442 -2.359,2.885 -3.538,4.327 -0.526,0.655 -1.133,1.376 -1.821,2.163 -0.688,0.787 -1.425,1.51 -2.212,2.162 -0.788,0.655 -1.64,1.164 -2.557,1.525 -0.92,0.359 -1.868,0.441 -2.852,0.246 -1.048,-0.197 -1.982,-0.723 -2.802,-1.573 -0.82,-0.851 -1.524,-1.834 -2.115,-2.95 -0.59,-1.114 -1.033,-2.245 -1.328,-3.394 -0.294,-1.146 -0.443,-2.178 -0.443,-3.096 -2.032,3.145 -3.736,5.554 -5.112,7.227 -1.375,1.671 -2.885,2.835 -4.523,3.49 -1.442,0.591 -2.819,0.722 -4.131,0.394 -1.31,-0.328 -2.524,-0.933 -3.638,-1.819 -1.114,-0.885 -2.097,-1.948 -2.95,-3.195 -0.853,-1.244 -1.541,-2.459 -2.064,-3.639 -1.182,-2.754 -1.721,-5.457 -1.623,-8.111 0.1,-2.656 0.607,-5.36 1.524,-8.113 1.375,-4.456 3.703,-8.423 6.982,-11.899 1.245,-1.311 2.687,-2.441 4.327,-3.392 1.636,-0.949 3.357,-1.623 5.163,-2.017 1.801,-0.393 3.622,-0.491 5.458,-0.294 1.833,0.195 3.603,0.785 5.309,1.769 1.113,0.656 2.032,1.706 2.754,3.147 0.261,-0.72 0.542,-1.409 0.835,-2.064 0.294,-0.654 0.605,-1.344 0.935,-2.066 1.31,-2.95 2.704,-5.899 4.179,-8.85 1.476,-2.95 3.096,-5.735 4.867,-8.358 0.984,-1.506 2.213,-2.343 3.688,-2.507 1.475,-0.163 2.817,0.098 4.031,0.785 1.212,0.69 2.097,1.705 2.656,3.051 0.555,1.347 0.407,2.804 -0.443,4.377 z m -24.878,17.109 c -0.461,-0.26 -0.952,-0.343 -1.475,-0.245 -0.526,0.098 -1.05,0.294 -1.575,0.589 -0.526,0.297 -1.018,0.658 -1.475,1.082 -0.46,0.428 -0.853,0.771 -1.18,1.033 -1.445,1.443 -2.739,3.016 -3.883,4.719 -1.149,1.705 -2.182,3.442 -3.1,5.213 -0.983,1.771 -1.884,3.59 -2.704,5.458 -0.818,1.867 -1.46,3.786 -1.917,5.753 -0.131,0.524 -0.23,1.214 -0.296,2.064 -0.065,0.853 -0.065,1.705 0,2.556 0.066,0.854 0.261,1.624 0.592,2.311 0.326,0.689 0.851,1.067 1.573,1.132 1.114,0.133 2.13,-0.212 3.048,-1.032 0.918,-0.819 1.705,-1.622 2.36,-2.41 1.312,-1.638 2.473,-3.391 3.49,-5.26 1.018,-1.869 1.981,-3.754 2.902,-5.654 1.114,-2.294 2.18,-4.573 3.196,-6.833 1.016,-2.264 1.688,-4.213 2.014,-5.853 0,-0.983 -0.131,-1.917 -0.392,-2.802 -0.262,-0.886 -0.656,-1.492 -1.178,-1.821 z"
           id="path12"
           inkscape:connector-curvature="0" /><path
           fill="#FFFFFF"
           d="m 374.754,573.094 c -0.722,1.441 -1.395,2.869 -2.017,4.276 -0.624,1.412 -1.229,2.87 -1.821,4.378 -0.196,0.524 -0.476,1.162 -0.833,1.917 -0.361,0.753 -0.689,1.524 -0.983,2.311 -0.296,0.786 -0.511,1.524 -0.642,2.212 -0.13,0.689 -0.033,1.165 0.296,1.427 0.524,0.459 1.377,0.263 2.558,-0.59 1.179,-0.853 2.392,-1.919 3.638,-3.195 1.245,-1.279 2.393,-2.541 3.441,-3.788 1.049,-1.244 1.704,-2.03 1.967,-2.358 0.918,-1.182 1.786,-2.36 2.604,-3.541 0.82,-1.179 1.625,-2.392 2.41,-3.639 0.261,-0.393 0.554,-0.867 0.885,-1.424 0.327,-0.558 0.721,-1.034 1.179,-1.427 0.458,-0.395 0.934,-0.623 1.425,-0.688 0.492,-0.065 1.033,0.229 1.625,0.885 0.719,0.853 0.819,1.736 0.294,2.653 -0.525,0.919 -1.017,1.74 -1.475,2.46 -2.034,3.015 -4.131,5.736 -6.293,8.162 -2.163,2.426 -4.393,4.687 -6.688,6.783 -0.982,0.92 -2.082,1.836 -3.292,2.754 -1.214,0.918 -2.543,1.44 -3.983,1.573 -1.116,0.131 -2.099,0 -2.95,-0.394 -0.853,-0.393 -1.607,-0.934 -2.263,-1.621 -0.653,-0.689 -1.212,-1.476 -1.671,-2.36 -0.457,-0.885 -0.818,-1.786 -1.083,-2.704 -0.457,-1.378 -0.623,-2.885 -0.492,-4.522 0.134,-1.64 0.411,-3.262 0.837,-4.87 0.426,-1.604 0.951,-3.178 1.573,-4.719 0.622,-1.54 1.196,-2.965 1.721,-4.278 1.047,-2.62 1.918,-4.77 2.606,-6.44 0.688,-1.672 1.26,-3 1.721,-3.983 0.458,-0.983 0.835,-1.72 1.13,-2.212 0.295,-0.491 0.641,-0.9 1.033,-1.229 1.114,-0.984 2.328,-1.441 3.638,-1.378 1.311,0.067 2.474,0.476 3.492,1.229 1.016,0.754 1.735,1.755 2.162,3 0.427,1.246 0.312,2.557 -0.341,3.933 z m 1.57,-31.565 c 0,-1.771 0.642,-3.295 1.919,-4.573 1.278,-1.277 2.768,-1.917 4.473,-1.917 1.771,0 3.296,0.64 4.575,1.917 1.278,1.278 1.917,2.802 1.917,4.573 0,1.704 -0.639,3.194 -1.917,4.474 -1.278,1.277 -2.804,1.917 -4.575,1.917 -1.706,0 -3.195,-0.64 -4.473,-1.917 -1.277,-1.279 -1.919,-2.77 -1.919,-4.474 z"
           id="path14"
           inkscape:connector-curvature="0" /><path
           fill="#FFFFFF"
           d="m 419.2,581.157 c -1.313,1.706 -2.805,3.442 -4.476,5.211 -1.671,1.771 -3.491,3.312 -5.458,4.623 -1.966,1.311 -4.048,2.261 -6.244,2.851 -2.197,0.591 -4.473,0.557 -6.835,-0.098 -2.819,-0.785 -5.08,-2.344 -6.783,-4.671 -1.706,-2.327 -2.919,-4.835 -3.638,-7.523 -0.657,-2.358 -0.803,-4.769 -0.444,-7.227 0.361,-2.459 0.999,-4.835 1.918,-7.13 0.983,-2.424 2.424,-4.769 4.326,-7.032 1.901,-2.26 3.999,-4.046 6.293,-5.357 2.491,-1.377 5.163,-2.097 8.015,-2.163 2.85,-0.065 5.654,0.195 8.408,0.786 h 0.294 l 0.492,0.198 0.983,0.194 c 1.573,0.527 2.917,1.426 4.031,2.705 1.114,1.279 2,2.739 2.654,4.376 2.82,-0.458 5.621,-1.163 8.409,-2.113 2.785,-0.951 4.932,-1.885 6.441,-2.805 0.522,-0.326 1.097,-0.407 1.721,-0.245 0.622,0.165 1.096,0.509 1.425,1.033 0.326,0.526 0.409,1.098 0.246,1.72 -0.165,0.625 -0.542,1.1 -1.129,1.426 -2.493,1.51 -5.099,2.689 -7.819,3.542 -2.721,0.852 -5.456,1.443 -8.21,1.769 l 0.196,1.573 c 0.131,2.688 -0.311,5.196 -1.327,7.523 -1.015,2.327 -2.179,4.608 -3.489,6.834 z m -8.262,-4.032 c 0.918,-1.899 1.755,-3.802 2.508,-5.702 0.753,-1.902 1.393,-3.836 1.917,-5.802 -1.31,-0.132 -2.524,-0.458 -3.638,-0.983 -1.967,-1.049 -3.115,-2.688 -3.442,-4.917 -1.049,0.722 -2.001,1.573 -2.85,2.556 -0.853,0.983 -1.575,1.869 -2.165,2.656 -1.903,2.491 -3.574,5.228 -5.015,8.211 -1.444,2.982 -2.427,6.048 -2.95,9.193 -0.065,0.46 -0.148,1.066 -0.246,1.819 -0.1,0.754 -0.115,1.509 -0.05,2.262 0.066,0.755 0.231,1.442 0.492,2.065 0.261,0.623 0.688,1.033 1.279,1.229 0.653,0.264 1.375,0.312 2.163,0.148 0.788,-0.163 1.476,-0.409 2.066,-0.737 1.18,-0.59 2.261,-1.327 3.244,-2.214 0.983,-0.885 1.869,-1.868 2.657,-2.948 0.785,-1.082 1.505,-2.213 2.162,-3.395 0.654,-1.179 1.28,-2.326 1.868,-3.441 z m 3.933,-18.88 -0.688,-0.195 h -0.296 c -0.392,-0.066 -0.638,-0.051 -0.738,0.048 -0.096,0.098 -0.18,0.213 -0.246,0.344 -0.13,0.33 -0.13,0.689 0,1.083 0.131,0.392 0.426,0.722 0.888,0.983 0.718,0.393 1.475,0.622 2.26,0.688 0,-0.72 -0.083,-1.36 -0.246,-1.917 -0.162,-0.556 -0.475,-0.9 -0.934,-1.034 z"
           id="path16"
           inkscape:connector-curvature="0" /><path
           fill="#FFFFFF"
           d="m 448.305,576.83 c 0.59,-1.77 1.245,-3.507 1.967,-5.211 0.72,-1.704 1.409,-3.408 2.064,-5.113 0.198,-0.59 0.475,-1.328 0.835,-2.212 0.361,-0.886 0.672,-1.771 0.936,-2.656 0.26,-0.884 0.424,-1.687 0.491,-2.408 0.064,-0.722 -0.034,-1.246 -0.295,-1.574 -0.394,-0.459 -1.049,-0.358 -1.967,0.294 -0.917,0.657 -1.934,1.623 -3.047,2.902 -1.116,1.277 -2.295,2.737 -3.54,4.375 -1.247,1.64 -2.395,3.23 -3.441,4.77 -1.051,1.541 -1.951,2.901 -2.704,4.082 -0.755,1.18 -1.196,1.901 -1.328,2.163 -1.115,1.901 -2.262,3.85 -3.441,5.85 -1.181,2.001 -2.099,4.05 -2.754,6.146 -0.196,0.657 -0.394,1.395 -0.59,2.212 -0.198,0.82 -0.444,1.541 -0.737,2.162 -0.296,0.623 -0.689,1.084 -1.181,1.379 -0.492,0.295 -1.097,0.245 -1.819,-0.148 -0.59,-0.262 -0.983,-0.738 -1.179,-1.426 -0.198,-0.688 -0.296,-1.457 -0.296,-2.311 0,-0.852 0.05,-1.673 0.148,-2.457 0.098,-0.788 0.148,-1.41 0.148,-1.87 0.394,-4.721 1.081,-9.341 2.065,-13.864 0.457,-2.229 0.918,-4.49 1.377,-6.785 0.457,-2.294 1.046,-4.49 1.769,-6.587 0.394,-1.183 1.147,-2.264 2.262,-3.246 1.115,-0.984 2.326,-1.541 3.638,-1.671 1.048,-0.065 2.016,0.114 2.902,0.538 0.885,0.43 1.588,1.034 2.114,1.819 0.522,0.788 0.851,1.673 0.984,2.657 0.13,0.983 -0.035,1.966 -0.492,2.949 0.72,-0.983 1.573,-1.999 2.556,-3.047 0.984,-1.05 2.031,-2.067 3.146,-3.052 0.655,-0.588 1.475,-1.128 2.458,-1.619 0.983,-0.492 2.017,-0.869 3.098,-1.132 1.082,-0.262 2.163,-0.395 3.246,-0.395 1.081,0 2.047,0.196 2.9,0.59 1.508,0.788 2.606,1.756 3.294,2.901 0.69,1.147 1.36,2.377 2.017,3.688 4.458,-5.245 8.882,-7.605 13.275,-7.081 0.785,0.132 1.49,0.444 2.114,0.936 0.623,0.492 1.179,1.098 1.671,1.818 0.492,0.723 0.886,1.475 1.179,2.261 0.296,0.787 0.507,1.475 0.64,2.066 0.394,2.295 0.311,4.704 -0.246,7.228 -0.557,2.524 -1.41,4.964 -2.557,7.326 -1.148,2.359 -2.476,4.572 -3.983,6.636 -1.507,2.064 -3.047,3.785 -4.621,5.163 -0.394,0.264 -0.835,0.722 -1.327,1.376 -0.492,0.658 -0.852,1.23 -1.081,1.723 -0.23,0.491 -0.198,0.802 0.099,0.933 0.293,0.133 1.063,-0.196 2.31,-0.984 1.245,-0.784 2.606,-1.898 4.082,-3.342 1.475,-1.441 2.916,-3 4.328,-4.671 1.408,-1.672 2.687,-3.325 3.833,-4.966 1.146,-1.638 2.082,-3.015 2.804,-4.13 0.392,-0.654 0.835,-1.328 1.327,-2.016 0.492,-0.688 1.194,-0.934 2.115,-0.737 0.653,0.132 1.114,0.378 1.375,0.737 0.261,0.36 0.376,0.771 0.346,1.229 -0.034,0.459 -0.148,0.935 -0.346,1.426 -0.196,0.491 -0.392,0.935 -0.59,1.329 -1.312,2.097 -2.77,4.096 -4.375,5.998 -1.607,1.9 -3.263,3.77 -4.967,5.604 -0.853,0.921 -1.769,1.853 -2.752,2.803 -0.982,0.953 -2.001,1.836 -3.049,2.656 -1.049,0.82 -2.148,1.556 -3.295,2.212 -1.146,0.655 -2.345,1.082 -3.589,1.277 -1.443,0.262 -2.604,0.1 -3.49,-0.491 -0.885,-0.59 -1.542,-1.394 -1.966,-2.409 -0.428,-1.017 -0.674,-2.146 -0.738,-3.392 -0.067,-1.244 0,-2.393 0.196,-3.441 0.525,-3.147 1.491,-6.016 2.902,-8.604 1.408,-2.59 2.966,-5.228 4.671,-7.916 0.261,-0.395 0.687,-1.082 1.277,-2.065 0.59,-0.983 1.131,-2.017 1.623,-3.098 0.492,-1.082 0.835,-2.13 1.033,-3.146 0.196,-1.017 0.031,-1.787 -0.492,-2.313 -0.263,-0.262 -0.837,-0.08 -1.72,0.541 -0.886,0.625 -1.821,1.378 -2.804,2.263 -0.984,0.884 -1.884,1.736 -2.704,2.557 -0.82,0.82 -1.295,1.327 -1.425,1.522 -1.771,1.968 -3.442,4.001 -5.015,6.099 -1.573,2.099 -3.115,4.196 -4.623,6.293 -1.245,1.769 -2.443,3.589 -3.588,5.457 -1.148,1.868 -2.181,3.755 -3.098,5.654 -0.328,0.526 -0.606,1.196 -0.835,2.017 -0.23,0.819 -0.606,1.425 -1.131,1.818 -0.526,0.524 -1.148,0.703 -1.869,0.542 -0.722,-0.163 -1.214,-0.542 -1.475,-1.132 -0.264,-0.655 -0.296,-1.655 -0.098,-3 0.196,-1.343 0.491,-2.752 0.885,-4.227 0.392,-1.476 0.801,-2.868 1.229,-4.18 0.421,-1.311 0.734,-2.262 0.931,-2.852 z"
           id="path18"
           inkscape:connector-curvature="0" /><path
           fill="#FFFFFF"
           d="m 530.216,561.687 c -1.116,2.033 -2.212,4.049 -3.294,6.048 -1.084,1.999 -2.081,4.05 -3,6.146 -0.526,1.247 -1.033,2.506 -1.525,3.785 -0.491,1.279 -0.933,2.574 -1.325,3.884 -0.33,1.115 -0.722,2.411 -1.181,3.885 -0.459,1.475 -0.523,2.838 -0.197,4.082 0.983,-0.394 1.951,-1.033 2.901,-1.92 0.95,-0.885 1.834,-1.868 2.656,-2.948 0.818,-1.082 1.586,-2.195 2.309,-3.344 0.723,-1.146 1.345,-2.113 1.871,-2.9 0.785,-1.18 1.556,-2.377 2.308,-3.59 0.754,-1.212 1.49,-2.441 2.213,-3.688 0.262,-0.458 0.642,-0.886 1.133,-1.277 0.492,-0.394 0.983,-0.64 1.476,-0.737 0.491,-0.101 0.933,-0.016 1.326,0.245 0.395,0.262 0.621,0.786 0.688,1.573 0.131,0.854 -0.115,1.753 -0.738,2.705 -0.623,0.95 -1.13,1.753 -1.523,2.407 -0.852,1.312 -1.935,3 -3.245,5.065 -1.313,2.063 -2.753,4.048 -4.327,5.949 -1.573,1.902 -3.195,3.558 -4.867,4.965 -1.671,1.409 -3.262,2.147 -4.768,2.213 -0.983,0.065 -1.903,-0.214 -2.754,-0.835 -0.853,-0.625 -1.642,-1.425 -2.36,-2.409 -0.723,-0.983 -1.345,-2.05 -1.869,-3.195 -0.526,-1.146 -0.919,-2.278 -1.18,-3.394 l -1.377,2.164 c -0.92,1.374 -1.984,2.77 -3.195,4.179 -1.214,1.411 -2.641,2.441 -4.278,3.097 -1.443,0.591 -2.818,0.722 -4.128,0.394 -1.314,-0.328 -2.525,-0.933 -3.64,-1.819 -1.116,-0.885 -2.099,-1.948 -2.95,-3.195 -0.853,-1.244 -1.542,-2.459 -2.065,-3.639 -1.179,-2.754 -1.721,-5.457 -1.623,-8.111 0.098,-2.656 0.607,-5.36 1.522,-8.113 0.723,-2.228 1.656,-4.343 2.805,-6.344 1.145,-1.999 2.539,-3.851 4.179,-5.556 1.245,-1.311 2.687,-2.441 4.325,-3.392 1.641,-0.949 3.346,-1.623 5.115,-2.017 1.769,-0.393 3.59,-0.491 5.456,-0.294 1.87,0.195 3.654,0.785 5.36,1.769 0.654,0.394 1.229,0.92 1.721,1.575 0.492,0.654 0.901,1.375 1.229,2.162 0.329,-0.523 0.688,-1.048 1.081,-1.573 0.394,-0.524 0.853,-0.982 1.377,-1.377 1.181,-0.917 2.426,-1.295 3.735,-1.131 1.312,0.165 2.443,0.656 3.395,1.476 0.95,0.82 1.588,1.868 1.918,3.147 0.325,1.277 0.095,2.574 -0.69,3.883 z m -13.569,1.082 c 0,-0.917 -0.115,-1.819 -0.347,-2.704 -0.229,-0.886 -0.672,-1.522 -1.326,-1.918 -1.052,-0.72 -2.245,-0.588 -3.59,0.396 -1.346,0.982 -2.624,2.26 -3.833,3.832 -1.215,1.575 -2.298,3.181 -3.247,4.819 -0.952,1.64 -1.59,2.754 -1.917,3.344 -0.983,1.771 -1.886,3.59 -2.703,5.458 -0.822,1.867 -1.46,3.786 -1.919,5.753 -0.133,0.524 -0.231,1.214 -0.294,2.064 -0.067,0.853 -0.067,1.705 0,2.556 0.063,0.854 0.261,1.624 0.588,2.311 0.328,0.689 0.853,1.067 1.575,1.132 1.113,0.133 2.127,-0.212 3.048,-1.032 0.915,-0.819 1.673,-1.622 2.26,-2.41 1.312,-1.703 2.493,-3.474 3.542,-5.311 1.048,-1.834 2.032,-3.703 2.95,-5.604 0.982,-2.163 1.949,-4.426 2.9,-6.786 0.949,-2.36 1.721,-4.328 2.313,-5.9 z"
           id="path20"
           inkscape:connector-curvature="0" /><path
           fill="#FFFFFF"
           d="m 553.127,586.664 c -0.853,1.573 -1.952,2.95 -3.295,4.129 -1.344,1.183 -2.837,2.08 -4.475,2.705 -1.637,0.621 -3.359,0.95 -5.162,0.983 -1.803,0.032 -3.557,-0.312 -5.261,-1.032 -1.771,-0.657 -3.294,-1.654 -4.572,-3 -1.278,-1.343 -2.246,-2.834 -2.9,-4.474 -0.655,-1.638 -0.967,-3.375 -0.935,-5.212 0.033,-1.833 0.475,-3.604 1.328,-5.31 0.459,-0.919 1.099,-1.834 1.917,-2.755 0.819,-0.915 1.737,-1.687 2.754,-2.311 1.014,-0.621 2.08,-1.047 3.196,-1.276 1.113,-0.23 2.228,-0.147 3.342,0.245 -0.196,-1.244 -0.262,-2.36 -0.196,-3.344 0.065,-1.704 0.442,-3.424 1.131,-5.162 0.688,-1.736 1.606,-3.309 2.753,-4.721 1.146,-1.408 2.508,-2.571 4.08,-3.49 1.574,-0.917 3.279,-1.377 5.115,-1.377 2.03,-0.064 3.735,0.492 5.112,1.671 1.378,1.182 2.293,2.573 2.755,4.18 0.457,1.608 0.406,3.264 -0.148,4.967 -0.56,1.705 -1.755,3.082 -3.589,4.129 -0.723,0.394 -1.591,0.755 -2.606,1.082 -1.016,0.33 -2.015,0.46 -2.998,0.393 1.636,0.853 2.817,2.064 3.539,3.64 0.721,1.573 1.132,3.279 1.229,5.113 0.098,1.836 -0.067,3.653 -0.491,5.458 -0.429,1.804 -0.969,3.392 -1.623,4.769 z m -15.733,-3.048 c -0.328,1.508 -0.231,2.736 0.295,3.688 0.522,0.949 1.245,1.637 2.162,2.063 0.919,0.427 1.967,0.591 3.146,0.492 1.181,-0.099 2.245,-0.427 3.196,-0.983 0.951,-0.556 1.705,-1.343 2.263,-2.36 0.557,-1.016 0.703,-2.212 0.441,-3.591 -0.328,-1.508 -1.146,-2.767 -2.458,-3.784 -1.312,-1.016 -2.524,-2.048 -3.638,-3.099 -0.328,0.723 -0.755,1.377 -1.28,1.967 -0.524,0.59 -1.064,1.166 -1.62,1.721 -0.56,0.56 -1.068,1.148 -1.524,1.771 -0.46,0.625 -0.788,1.327 -0.983,2.115 z m 14.453,-23.6 c 0.854,0.328 1.558,0.328 2.115,0 0.557,-0.328 0.918,-0.786 1.081,-1.376 0.163,-0.59 0.115,-1.197 -0.146,-1.82 -0.263,-0.621 -0.787,-1.032 -1.574,-1.229 -1.508,-0.394 -2.917,-0.278 -4.228,0.344 -1.313,0.624 -2.328,1.558 -3.048,2.804 -0.656,1.048 -1.052,2.196 -1.182,3.44 -0.132,1.246 0.163,2.426 0.886,3.539 0.394,0.591 0.802,0.951 1.229,1.082 0.426,0.133 0.867,0.197 1.327,0.197 -0.984,-0.589 -1.523,-1.343 -1.624,-2.261 -0.098,-0.918 0.065,-1.785 0.491,-2.607 0.428,-0.818 1.067,-1.475 1.92,-1.968 0.852,-0.491 1.77,-0.538 2.753,-0.145 z"
           id="path22"
           inkscape:connector-curvature="0" /><path
           fill="#FFFFFF"
           d="m 612.814,586.762 c -0.853,1.573 -1.967,2.95 -3.342,4.13 -1.378,1.182 -2.886,2.082 -4.525,2.703 -1.64,0.623 -3.36,0.952 -5.162,0.984 -1.804,0.032 -3.557,-0.312 -5.26,-1.031 -1.77,-0.657 -3.294,-1.655 -4.574,-3 -1.277,-1.343 -2.242,-2.835 -2.899,-4.473 -0.654,-1.639 -0.968,-3.377 -0.934,-5.213 0.033,-1.835 0.476,-3.604 1.325,-5.311 0.462,-0.916 1.099,-1.834 1.919,-2.752 0.82,-0.919 1.735,-1.688 2.752,-2.313 1.018,-0.623 2.098,-1.047 3.246,-1.277 1.146,-0.229 2.277,-0.147 3.393,0.246 -0.196,-1.245 -0.263,-2.36 -0.196,-3.344 0.064,-1.704 0.441,-3.425 1.13,-5.163 0.69,-1.735 1.59,-3.309 2.705,-4.72 1.114,-1.409 2.457,-2.558 4.032,-3.442 1.574,-0.884 3.274,-1.36 5.111,-1.425 2.033,-0.065 3.738,0.491 5.115,1.67 1.376,1.183 2.295,2.592 2.751,4.229 0.459,1.641 0.412,3.312 -0.145,5.015 -0.559,1.705 -1.756,3.083 -3.59,4.132 -0.722,0.392 -1.59,0.737 -2.606,1.031 -1.019,0.295 -1.981,0.41 -2.9,0.344 1.573,0.92 2.734,2.164 3.492,3.737 0.753,1.573 1.179,3.262 1.277,5.064 0.098,1.804 -0.048,3.604 -0.444,5.409 -0.39,1.805 -0.949,3.393 -1.671,4.77 z m -15.831,-3.048 c -0.329,1.508 -0.214,2.737 0.344,3.688 0.557,0.95 1.294,1.638 2.213,2.064 0.917,0.426 1.95,0.606 3.097,0.541 1.146,-0.064 2.196,-0.376 3.148,-0.935 0.949,-0.556 1.701,-1.327 2.261,-2.312 0.556,-0.983 0.705,-2.194 0.443,-3.637 -0.33,-1.575 -1.133,-2.867 -2.41,-3.886 -1.277,-1.016 -2.476,-2.048 -3.59,-3.098 -0.196,0.853 -0.573,1.56 -1.129,2.113 -0.56,0.561 -1.133,1.1 -1.722,1.624 -0.591,0.527 -1.133,1.082 -1.624,1.671 -0.491,0.595 -0.833,1.316 -1.031,2.167 z m 14.552,-23.6 c 0.788,0.394 1.46,0.426 2.018,0.098 0.556,-0.325 0.9,-0.787 1.033,-1.378 0.13,-0.589 0.08,-1.211 -0.148,-1.867 -0.231,-0.654 -0.738,-1.081 -1.522,-1.278 -1.51,-0.393 -2.92,-0.278 -4.23,0.344 -1.313,0.624 -2.328,1.559 -3.05,2.802 -0.654,1.117 -1.031,2.281 -1.129,3.492 -0.1,1.214 0.18,2.376 0.836,3.49 0.328,0.525 0.77,0.92 1.327,1.181 0.557,0.264 0.901,0.231 1.032,-0.097 -0.853,-0.656 -1.329,-1.46 -1.425,-2.411 -0.1,-0.949 0.08,-1.802 0.54,-2.557 0.459,-0.753 1.098,-1.327 1.919,-1.721 0.818,-0.395 1.75,-0.426 2.799,-0.098 z"
           id="path24"
           inkscape:connector-curvature="0" /><path
           fill="#FFFFFF"
           d="m 631.007,593.646 c -2.819,-0.788 -5.032,-2.196 -6.639,-4.229 -1.609,-2.03 -2.738,-4.326 -3.393,-6.884 -0.655,-2.556 -0.852,-5.211 -0.591,-7.965 0.262,-2.753 0.852,-5.244 1.771,-7.473 0.983,-2.425 2.408,-4.785 4.275,-7.08 1.871,-2.294 3.948,-4.063 6.246,-5.31 2.884,-1.509 5.899,-2.296 9.045,-2.361 3.147,-0.064 6.196,0.395 9.147,1.378 1.438,0.523 2.669,1.294 3.687,2.31 1.014,1.02 1.852,2.181 2.508,3.492 0.653,1.312 1.131,2.671 1.425,4.079 0.297,1.411 0.442,2.738 0.442,3.983 0,1.246 -0.146,2.442 -0.442,3.589 -0.294,1.148 -0.672,2.279 -1.13,3.393 0.982,-0.457 1.934,-1.016 2.852,-1.671 0.918,-0.655 1.703,-1.541 2.358,-2.656 0.459,-0.785 1.018,-1.229 1.673,-1.327 0.655,-0.098 1.229,0 1.721,0.296 0.492,0.294 0.82,0.755 0.983,1.377 0.163,0.622 0.016,1.262 -0.444,1.916 -1.179,1.968 -2.769,3.608 -4.767,4.917 -2.001,1.313 -4.376,2.23 -7.129,2.754 -1.248,1.77 -2.724,3.606 -4.425,5.507 -1.706,1.901 -3.576,3.558 -5.606,4.966 -2.033,1.411 -4.196,2.441 -6.489,3.098 -2.296,0.653 -4.655,0.621 -7.078,-0.099 z m 8.652,-17.996 c -0.921,-1.704 -1.428,-3.604 -1.523,-5.703 -0.1,-2.098 0.276,-4.293 1.129,-6.59 -2.425,3.281 -4.425,6.459 -5.998,9.54 -1.572,3.082 -2.621,6.193 -3.146,9.342 -0.066,0.459 -0.147,1.066 -0.246,1.818 -0.097,0.756 -0.116,1.493 -0.049,2.212 0.063,0.723 0.229,1.396 0.492,2.018 0.261,0.621 0.689,1.032 1.276,1.229 0.723,0.328 1.475,0.392 2.264,0.195 0.787,-0.195 1.475,-0.426 2.065,-0.688 1.899,-0.918 3.538,-2.212 4.917,-3.885 1.375,-1.671 2.589,-3.458 3.638,-5.358 -0.919,-0.328 -1.805,-0.82 -2.654,-1.475 -0.853,-0.655 -1.576,-1.539 -2.165,-2.655 z m 4.622,-12.39 c -0.33,0.722 -0.627,1.525 -0.888,2.41 -0.262,0.884 -0.441,1.77 -0.539,2.655 -0.098,0.885 -0.083,1.771 0.048,2.654 0.131,0.885 0.395,1.72 0.788,2.507 0.591,1.049 1.54,1.771 2.852,2.164 0.72,-1.704 1.408,-3.393 2.064,-5.063 0.655,-1.673 1.214,-3.394 1.671,-5.162 0.066,-0.395 0.181,-0.95 0.345,-1.673 0.163,-0.721 0.263,-1.441 0.297,-2.163 0.031,-0.721 -0.034,-1.41 -0.198,-2.064 -0.163,-0.654 -0.476,-1.083 -0.935,-1.279 -1.114,-0.13 -2.178,0.344 -3.196,1.425 -1.016,1.083 -1.787,2.279 -2.309,3.589 z"
           id="path26"
           inkscape:connector-curvature="0" /><path
           fill="#FFFFFF"
           d="m 690.987,553.427 c 0.722,0.263 1.459,0.689 2.212,1.279 0.752,0.59 1.46,1.246 2.117,1.966 0.652,0.724 1.209,1.508 1.671,2.361 0.456,0.854 0.752,1.638 0.883,2.358 0.328,1.903 0.476,3.819 0.444,5.754 -0.034,1.934 -0.411,3.818 -1.133,5.654 -0.852,2.228 -2.031,4.262 -3.538,6.096 -1.508,1.836 -3.114,3.574 -4.819,5.213 -1.574,1.508 -3.211,2.949 -4.918,4.324 -1.705,1.378 -3.507,2.624 -5.408,3.737 -1.312,0.789 -2.835,1.44 -4.57,1.968 -1.74,0.524 -3.361,0.359 -4.869,-0.491 -0.853,-0.46 -1.721,-1.035 -2.605,-1.723 -0.884,-0.687 -1.722,-1.438 -2.509,-2.261 -0.786,-0.819 -1.46,-1.704 -2.015,-2.655 -0.555,-0.948 -0.936,-1.917 -1.131,-2.899 -0.522,-2.69 -0.623,-5.293 -0.297,-7.818 0.331,-2.522 0.952,-5.065 1.872,-7.622 1.769,-5.373 3.798,-10.749 6.096,-16.127 2.293,-5.374 5.178,-10.324 8.654,-14.848 0.522,-0.654 1.095,-1.359 1.72,-2.115 0.623,-0.753 1.294,-1.439 2.016,-2.063 0.719,-0.623 1.507,-1.115 2.36,-1.476 0.85,-0.359 1.771,-0.475 2.755,-0.344 1.179,0.133 2.178,0.59 2.998,1.377 0.819,0.786 1.376,1.688 1.673,2.704 0.293,1.016 0.326,2.065 0.095,3.146 -0.23,1.081 -0.803,2.017 -1.721,2.803 -0.587,0.461 -1.409,1.493 -2.458,3.097 -1.049,1.608 -2.178,3.541 -3.393,5.804 -1.213,2.263 -2.458,4.785 -3.736,7.57 -1.278,2.788 -2.507,5.591 -3.688,8.408 -1.181,2.819 -2.229,5.573 -3.146,8.261 -0.918,2.688 -1.606,5.098 -2.064,7.227 -0.459,2.133 -0.624,3.869 -0.492,5.214 0.131,1.344 0.655,2.112 1.573,2.31 0.983,0 1.967,-0.409 2.949,-1.229 0.984,-0.819 1.902,-1.804 2.756,-2.95 0.85,-1.146 1.62,-2.325 2.311,-3.539 0.688,-1.214 1.261,-2.213 1.72,-3 0.916,-1.704 1.834,-3.457 2.753,-5.26 0.917,-1.805 1.735,-3.623 2.458,-5.46 0.198,-0.523 0.443,-1.131 0.737,-1.818 0.295,-0.688 0.606,-1.425 0.935,-2.212 -1.376,-1.244 -2.345,-2.622 -2.901,-4.13 -0.556,-1.508 -0.702,-2.853 -0.441,-4.033 0.262,-1.179 0.918,-2.064 1.967,-2.654 1.045,-0.592 2.42,-0.56 4.127,0.096 z"
           id="path28"
           inkscape:connector-curvature="0" /><path
           fill="#FFFFFF"
           d="m 743.006,576.83 c 0.59,-1.77 1.245,-3.507 1.967,-5.211 0.72,-1.704 1.407,-3.408 2.063,-5.113 0.196,-0.59 0.477,-1.328 0.838,-2.212 0.357,-0.886 0.67,-1.771 0.934,-2.656 0.261,-0.884 0.426,-1.687 0.491,-2.408 0.065,-0.721 -0.033,-1.246 -0.295,-1.574 -0.393,-0.459 -1.049,-0.358 -1.968,0.294 -0.917,0.657 -1.934,1.623 -3.047,2.902 -1.117,1.277 -2.296,2.737 -3.54,4.375 -1.247,1.64 -2.393,3.23 -3.441,4.77 -1.049,1.541 -1.951,2.901 -2.704,4.082 -0.755,1.18 -1.199,1.901 -1.329,2.163 -1.115,1.901 -2.261,3.85 -3.442,5.85 -1.18,2.001 -2.098,4.05 -2.752,6.146 -0.197,0.657 -0.394,1.395 -0.59,2.212 -0.195,0.82 -0.44,1.541 -0.737,2.162 -0.296,0.623 -0.688,1.084 -1.18,1.379 -0.491,0.295 -1.097,0.245 -1.82,-0.148 -0.589,-0.262 -0.983,-0.738 -1.18,-1.426 -0.195,-0.688 -0.295,-1.457 -0.295,-2.311 0,-0.852 0.05,-1.673 0.147,-2.457 0.099,-0.788 0.147,-1.41 0.147,-1.87 0.393,-4.721 1.082,-9.341 2.065,-13.864 0.459,-2.229 0.917,-4.49 1.377,-6.785 0.457,-2.294 1.048,-4.49 1.771,-6.587 0.393,-1.183 1.145,-2.264 2.262,-3.246 1.112,-0.984 2.325,-1.541 3.639,-1.671 1.046,-0.065 2.015,0.114 2.899,0.538 0.884,0.43 1.588,1.034 2.113,1.819 0.526,0.788 0.854,1.673 0.982,2.657 0.132,0.983 -0.031,1.966 -0.491,2.949 0.723,-0.983 1.575,-1.999 2.559,-3.047 0.983,-1.05 2.032,-2.067 3.146,-3.052 0.655,-0.588 1.475,-1.128 2.457,-1.619 0.983,-0.492 2.018,-0.869 3.099,-1.132 1.081,-0.262 2.165,-0.395 3.243,-0.395 1.084,0 2.05,0.196 2.902,0.59 1.508,0.788 2.606,1.756 3.294,2.901 0.688,1.147 1.36,2.377 2.017,3.688 4.456,-5.245 8.882,-7.605 13.275,-7.081 0.788,0.132 1.49,0.444 2.113,0.936 0.622,0.492 1.181,1.098 1.673,1.818 0.491,0.723 0.885,1.475 1.181,2.261 0.293,0.787 0.508,1.475 0.638,2.066 0.394,2.295 0.311,4.704 -0.246,7.228 -0.557,2.524 -1.409,4.964 -2.556,7.326 -1.147,2.359 -2.477,4.572 -3.982,6.636 -1.509,2.064 -3.049,3.785 -4.622,5.163 -0.394,0.264 -0.836,0.722 -1.327,1.376 -0.492,0.658 -0.854,1.23 -1.083,1.723 -0.231,0.491 -0.196,0.802 0.101,0.933 0.294,0.133 1.063,-0.196 2.31,-0.984 1.244,-0.784 2.606,-1.898 4.081,-3.342 1.476,-1.441 2.915,-3 4.324,-4.671 1.41,-1.672 2.69,-3.325 3.839,-4.966 1.144,-1.638 2.077,-3.015 2.799,-4.13 0.397,-0.654 0.837,-1.328 1.33,-2.016 0.491,-0.688 1.193,-0.934 2.112,-0.737 0.656,0.132 1.114,0.378 1.378,0.737 0.263,0.36 0.378,0.771 0.343,1.229 -0.032,0.459 -0.146,0.935 -0.343,1.426 -0.197,0.491 -0.395,0.935 -0.59,1.329 -1.312,2.097 -2.771,4.096 -4.375,5.998 -1.608,1.9 -3.262,3.77 -4.967,5.604 -0.853,0.921 -1.771,1.853 -2.755,2.803 -0.983,0.953 -1.999,1.836 -3.046,2.656 -1.05,0.82 -2.149,1.556 -3.296,2.212 -1.148,0.655 -2.343,1.082 -3.587,1.277 -1.445,0.262 -2.609,0.1 -3.492,-0.491 -0.886,-0.59 -1.54,-1.394 -1.967,-2.409 -0.425,-1.017 -0.673,-2.146 -0.737,-3.392 -0.065,-1.244 0,-2.393 0.196,-3.441 0.524,-3.147 1.49,-6.016 2.899,-8.604 1.41,-2.59 2.966,-5.228 4.671,-7.916 0.262,-0.395 0.689,-1.082 1.279,-2.065 0.591,-0.983 1.132,-2.017 1.623,-3.098 0.491,-1.082 0.836,-2.13 1.031,-3.146 0.198,-1.017 0.034,-1.787 -0.491,-2.313 -0.262,-0.262 -0.834,-0.08 -1.722,0.541 -0.884,0.625 -1.816,1.378 -2.8,2.263 -0.983,0.884 -1.886,1.736 -2.704,2.557 -0.822,0.82 -1.296,1.327 -1.427,1.522 -1.77,1.968 -3.442,4.001 -5.015,6.099 -1.574,2.099 -3.116,4.196 -4.622,6.293 -1.248,1.769 -2.442,3.589 -3.591,5.457 -1.146,1.868 -2.178,3.755 -3.097,5.654 -0.33,0.526 -0.605,1.196 -0.837,2.017 -0.23,0.819 -0.606,1.425 -1.129,1.818 -0.527,0.524 -1.148,0.703 -1.869,0.542 -0.722,-0.163 -1.214,-0.542 -1.475,-1.132 -0.264,-0.655 -0.294,-1.655 -0.099,-3 0.196,-1.343 0.492,-2.752 0.884,-4.227 0.396,-1.476 0.803,-2.868 1.229,-4.18 0.426,-1.312 0.741,-2.262 0.939,-2.852 z"
           id="path30"
           inkscape:connector-curvature="0" /><path
           fill="#FFFFFF"
           d="m 793.45,584.6 c 0.326,1.967 1.048,3.326 2.162,4.079 1.115,0.755 2.375,1.116 3.787,1.083 1.408,-0.032 2.884,-0.345 4.425,-0.935 1.539,-0.59 2.901,-1.245 4.08,-1.967 2.95,-1.835 5.539,-4.145 7.769,-6.932 2.229,-2.786 4.229,-5.654 5.998,-8.604 0.261,-0.394 0.507,-0.787 0.737,-1.181 0.231,-0.395 0.574,-0.688 1.034,-0.886 0.72,-0.326 1.409,-0.276 2.063,0.147 0.655,0.429 1.049,1.002 1.182,1.722 0.063,0.589 -0.085,1.246 -0.444,1.967 -0.36,0.723 -0.784,1.441 -1.276,2.164 -0.491,0.722 -1,1.393 -1.524,2.015 -0.527,0.624 -0.951,1.166 -1.28,1.623 -2.295,3.016 -4.949,5.737 -7.964,8.162 -3.016,2.427 -6.294,4.325 -9.834,5.702 -3.082,1.181 -6.096,1.655 -9.046,1.428 -2.949,-0.231 -5.605,-1.623 -7.964,-4.18 -2.493,-2.755 -3.983,-5.802 -4.476,-9.146 -0.493,-3.344 -0.278,-6.784 0.641,-10.325 0.524,-2.032 1.261,-4.063 2.211,-6.096 0.949,-2.032 2.115,-3.901 3.491,-5.607 1.376,-1.702 2.948,-3.146 4.72,-4.326 1.771,-1.18 3.801,-1.933 6.097,-2.261 3.541,-0.459 6.604,-0.212 9.195,0.737 2.589,0.951 4.769,2.968 6.538,6.049 1.311,2.294 2.032,4.588 2.164,6.883 0.13,2.295 -0.429,4.588 -1.673,6.884 -1.114,2.163 -2.557,3.803 -4.325,4.916 -1.771,1.114 -3.688,1.918 -5.754,2.409 -2.064,0.492 -4.213,0.786 -6.439,0.885 -2.23,0.099 -4.361,0.147 -6.392,0.147 -0.132,1.314 -0.099,2.46 0.097,3.444 z m 11.701,-15.144 c 0.327,-0.394 0.852,-1.146 1.574,-2.263 0.72,-1.114 1.377,-2.275 1.966,-3.49 0.59,-1.213 0.999,-2.36 1.229,-3.441 0.229,-1.083 -0.018,-1.82 -0.737,-2.212 -0.983,-0.525 -2.018,-0.444 -3.098,0.246 -1.082,0.688 -2.13,1.591 -3.146,2.703 -1.018,1.114 -1.919,2.296 -2.704,3.54 -0.787,1.247 -1.377,2.197 -1.771,2.853 -0.852,1.441 -1.638,2.917 -2.359,4.424 -0.722,1.508 -1.345,3.081 -1.867,4.72 2.162,-0.524 4.162,-1.407 5.998,-2.654 1.833,-1.245 3.475,-2.721 4.915,-4.426 z"
           id="path32"
           inkscape:connector-curvature="0" /><path
           fill="#FFFFFF"
           d="m 872.805,541.037 c -1.9,3.539 -3.736,7.048 -5.506,10.521 -1.769,3.477 -3.475,6.983 -5.115,10.522 -1.113,2.296 -2.163,4.62 -3.146,6.981 -0.983,2.36 -1.935,4.754 -2.851,7.179 -0.33,0.853 -0.722,1.867 -1.182,3.048 -0.458,1.18 -0.885,2.408 -1.276,3.688 -0.396,1.275 -0.689,2.506 -0.888,3.687 -0.195,1.18 -0.195,2.163 0,2.95 0.854,-0.328 1.737,-0.936 2.655,-1.818 0.918,-0.887 1.82,-1.87 2.706,-2.95 0.885,-1.084 1.72,-2.181 2.506,-3.296 0.786,-1.114 1.442,-2.064 1.966,-2.851 0.854,-1.312 1.688,-2.622 2.509,-3.933 0.818,-1.312 1.623,-2.622 2.409,-3.935 0.329,-0.523 0.787,-0.917 1.379,-1.18 0.588,-0.261 1.145,-0.377 1.671,-0.344 0.522,0.033 0.966,0.263 1.327,0.688 0.358,0.428 0.444,1.068 0.246,1.918 -0.329,1.246 -1.001,2.506 -2.015,3.785 -1.02,1.28 -1.887,2.443 -2.608,3.492 -1.049,1.572 -2.163,3.081 -3.342,4.522 -1.18,1.442 -2.36,2.885 -3.542,4.327 -0.525,0.655 -1.13,1.376 -1.816,2.163 -0.689,0.787 -1.428,1.51 -2.213,2.162 -0.787,0.655 -1.64,1.164 -2.559,1.525 -0.918,0.359 -1.867,0.441 -2.851,0.246 -1.05,-0.197 -1.985,-0.723 -2.804,-1.573 -0.82,-0.851 -1.525,-1.834 -2.112,-2.95 -0.592,-1.114 -1.032,-2.245 -1.329,-3.394 -0.296,-1.146 -0.442,-2.178 -0.442,-3.096 -2.031,3.145 -3.737,5.554 -5.111,7.227 -1.38,1.671 -2.888,2.835 -4.526,3.49 -1.441,0.591 -2.819,0.722 -4.129,0.394 -1.313,-0.328 -2.522,-0.933 -3.638,-1.819 -1.117,-0.885 -2.101,-1.948 -2.949,-3.195 -0.853,-1.244 -1.543,-2.459 -2.067,-3.639 -1.179,-2.754 -1.72,-5.457 -1.62,-8.111 0.097,-2.656 0.606,-5.36 1.522,-8.113 1.378,-4.456 3.702,-8.423 6.981,-11.899 1.245,-1.311 2.689,-2.441 4.327,-3.392 1.639,-0.949 3.359,-1.623 5.163,-2.017 1.803,-0.393 3.62,-0.491 5.455,-0.294 1.837,0.195 3.607,0.785 5.314,1.769 1.112,0.656 2.028,1.706 2.751,3.147 0.261,-0.72 0.539,-1.409 0.836,-2.064 0.295,-0.654 0.606,-1.344 0.933,-2.066 1.312,-2.95 2.705,-5.899 4.18,-8.85 1.475,-2.951 3.1,-5.735 4.869,-8.358 0.983,-1.506 2.212,-2.343 3.688,-2.507 1.474,-0.163 2.816,0.098 4.03,0.785 1.214,0.69 2.097,1.705 2.655,3.051 0.558,1.347 0.411,2.804 -0.441,4.377 z m -24.88,17.109 c -0.457,-0.26 -0.947,-0.343 -1.475,-0.245 -0.524,0.098 -1.048,0.294 -1.57,0.589 -0.526,0.297 -1.019,0.658 -1.476,1.082 -0.461,0.428 -0.853,0.771 -1.181,1.033 -1.443,1.443 -2.736,3.016 -3.886,4.719 -1.146,1.705 -2.178,3.442 -3.097,5.213 -0.983,1.771 -1.886,3.59 -2.703,5.458 -0.822,1.867 -1.461,3.786 -1.917,5.753 -0.134,0.524 -0.23,1.214 -0.296,2.064 -0.065,0.853 -0.065,1.705 0,2.556 0.065,0.854 0.261,1.624 0.589,2.311 0.328,0.689 0.851,1.067 1.573,1.132 1.114,0.133 2.13,-0.212 3.051,-1.032 0.915,-0.819 1.701,-1.622 2.358,-2.41 1.31,-1.638 2.474,-3.391 3.491,-5.26 1.015,-1.869 1.982,-3.754 2.899,-5.654 1.115,-2.294 2.179,-4.573 3.196,-6.833 1.017,-2.264 1.686,-4.213 2.017,-5.853 0,-0.983 -0.132,-1.917 -0.394,-2.802 -0.26,-0.886 -0.653,-1.492 -1.179,-1.821 z"
           id="path34"
           inkscape:connector-curvature="0" /><path
           fill="#FFFFFF"
           d="m 878.31,573.094 c -0.722,1.441 -1.393,2.869 -2.015,4.276 -0.624,1.412 -1.23,2.87 -1.819,4.378 -0.196,0.524 -0.476,1.162 -0.837,1.917 -0.361,0.753 -0.688,1.524 -0.983,2.311 -0.295,0.787 -0.507,1.524 -0.639,2.212 -0.132,0.689 -0.034,1.165 0.297,1.427 0.522,0.459 1.374,0.263 2.554,-0.59 1.181,-0.853 2.395,-1.919 3.64,-3.195 1.244,-1.279 2.391,-2.541 3.441,-3.788 1.048,-1.244 1.704,-2.03 1.968,-2.358 0.916,-1.182 1.784,-2.36 2.605,-3.541 0.818,-1.179 1.621,-2.392 2.409,-3.639 0.26,-0.393 0.557,-0.867 0.885,-1.424 0.329,-0.558 0.72,-1.034 1.182,-1.427 0.457,-0.395 0.932,-0.623 1.425,-0.688 0.491,-0.065 1.033,0.229 1.62,0.885 0.723,0.853 0.82,1.736 0.297,2.653 -0.526,0.919 -1.019,1.74 -1.476,2.46 -2.031,3.015 -4.129,5.736 -6.292,8.162 -2.164,2.426 -4.394,4.687 -6.688,6.783 -0.982,0.92 -2.082,1.836 -3.295,2.754 -1.215,0.918 -2.54,1.44 -3.982,1.573 -1.115,0.131 -2.099,0 -2.949,-0.394 -0.854,-0.393 -1.608,-0.934 -2.261,-1.621 -0.656,-0.689 -1.215,-1.476 -1.673,-2.36 -0.459,-0.885 -0.819,-1.786 -1.081,-2.704 -0.457,-1.378 -0.623,-2.885 -0.492,-4.522 0.131,-1.64 0.412,-3.262 0.836,-4.87 0.428,-1.604 0.95,-3.178 1.573,-4.719 0.622,-1.54 1.194,-2.965 1.72,-4.278 1.049,-2.62 1.917,-4.77 2.607,-6.44 0.689,-1.672 1.262,-3 1.72,-3.983 0.46,-0.983 0.836,-1.72 1.132,-2.212 0.295,-0.491 0.637,-0.9 1.033,-1.229 1.113,-0.984 2.324,-1.441 3.639,-1.378 1.309,0.067 2.473,0.476 3.491,1.229 1.013,0.754 1.735,1.755 2.161,3 0.428,1.246 0.312,2.557 -0.346,3.933 z m 1.574,-31.565 c 0,-1.771 0.639,-3.295 1.917,-4.573 1.279,-1.277 2.77,-1.917 4.475,-1.917 1.771,0 3.294,0.64 4.572,1.917 1.278,1.278 1.918,2.802 1.918,4.573 0,1.704 -0.64,3.194 -1.918,4.474 -1.278,1.277 -2.802,1.917 -4.572,1.917 -1.705,0 -3.195,-0.64 -4.475,-1.917 -1.279,-1.279 -1.917,-2.77 -1.917,-4.474 z"
           id="path36"
           inkscape:connector-curvature="0" /><path
           fill="#FFFFFF"
           d="m 940.752,541.037 c -1.902,3.539 -3.738,7.048 -5.507,10.521 -1.77,3.477 -3.474,6.983 -5.114,10.522 -1.114,2.296 -2.163,4.62 -3.146,6.981 -0.983,2.36 -1.934,4.754 -2.851,7.179 -0.33,0.853 -0.722,1.867 -1.181,3.048 -0.459,1.18 -0.885,2.408 -1.276,3.688 -0.396,1.275 -0.69,2.506 -0.888,3.687 -0.196,1.18 -0.196,2.163 0,2.95 0.852,-0.328 1.735,-0.936 2.656,-1.818 0.916,-0.887 1.818,-1.87 2.703,-2.95 0.887,-1.084 1.721,-2.181 2.507,-3.296 0.788,-1.114 1.442,-2.064 1.968,-2.851 0.852,-1.312 1.687,-2.622 2.507,-3.933 0.819,-1.312 1.624,-2.622 2.409,-3.935 0.328,-0.523 0.787,-0.917 1.379,-1.18 0.588,-0.261 1.144,-0.377 1.671,-0.344 0.522,0.033 0.965,0.263 1.327,0.688 0.359,0.428 0.443,1.068 0.245,1.918 -0.328,1.246 -1,2.506 -2.015,3.785 -1.018,1.28 -1.885,2.443 -2.607,3.492 -1.049,1.572 -2.164,3.081 -3.341,4.522 -1.181,1.442 -2.362,2.885 -3.543,4.327 -0.523,0.655 -1.128,1.376 -1.817,2.163 -0.689,0.787 -1.426,1.51 -2.213,2.162 -0.787,0.655 -1.64,1.164 -2.557,1.525 -0.919,0.359 -1.867,0.441 -2.851,0.246 -1.051,-0.197 -1.986,-0.723 -2.804,-1.573 -0.82,-0.851 -1.525,-1.834 -2.113,-2.95 -0.592,-1.114 -1.033,-2.245 -1.329,-3.394 -0.295,-1.146 -0.441,-2.178 -0.441,-3.096 -2.031,3.145 -3.738,5.554 -5.112,7.227 -1.38,1.671 -2.888,2.835 -4.525,3.49 -1.442,0.591 -2.819,0.722 -4.129,0.394 -1.313,-0.328 -2.524,-0.933 -3.638,-1.819 -1.117,-0.885 -2.101,-1.948 -2.95,-3.195 -0.853,-1.244 -1.542,-2.459 -2.066,-3.639 -1.179,-2.754 -1.722,-5.457 -1.621,-8.111 0.096,-2.656 0.607,-5.36 1.523,-8.113 1.376,-4.456 3.702,-8.423 6.981,-11.899 1.244,-1.311 2.688,-2.441 4.327,-3.392 1.637,-0.949 3.359,-1.623 5.162,-2.017 1.803,-0.393 3.62,-0.491 5.456,-0.294 1.837,0.195 3.606,0.785 5.313,1.769 1.114,0.656 2.03,1.706 2.752,3.147 0.262,-0.72 0.541,-1.409 0.835,-2.064 0.296,-0.654 0.608,-1.344 0.935,-2.066 1.312,-2.95 2.703,-5.899 4.179,-8.85 1.476,-2.951 3.1,-5.735 4.868,-8.358 0.983,-1.506 2.213,-2.343 3.688,-2.507 1.476,-0.163 2.817,0.098 4.032,0.785 1.214,0.69 2.097,1.705 2.654,3.051 0.556,1.347 0.41,2.804 -0.442,4.377 z m -24.88,17.109 c -0.457,-0.26 -0.948,-0.343 -1.476,-0.245 -0.524,0.098 -1.048,0.294 -1.57,0.589 -0.527,0.297 -1.019,0.658 -1.475,1.082 -0.462,0.428 -0.853,0.771 -1.182,1.033 -1.442,1.443 -2.737,3.016 -3.887,4.719 -1.146,1.705 -2.177,3.442 -3.094,5.213 -0.984,1.771 -1.888,3.59 -2.705,5.458 -0.821,1.867 -1.459,3.786 -1.917,5.753 -0.134,0.524 -0.229,1.214 -0.296,2.064 -0.065,0.853 -0.065,1.705 0,2.556 0.066,0.854 0.261,1.624 0.59,2.311 0.328,0.689 0.851,1.067 1.573,1.132 1.113,0.133 2.13,-0.212 3.05,-1.032 0.916,-0.819 1.702,-1.622 2.359,-2.41 1.309,-1.638 2.472,-3.391 3.491,-5.26 1.014,-1.869 1.98,-3.754 2.899,-5.654 1.114,-2.294 2.178,-4.573 3.196,-6.833 1.016,-2.264 1.687,-4.213 2.017,-5.853 0,-0.983 -0.134,-1.917 -0.395,-2.802 -0.26,-0.886 -0.652,-1.492 -1.178,-1.821 z"
           id="path38"
           inkscape:connector-curvature="0" /><path
           fill="#FFFFFF"
           d="m 977.231,561.687 c -1.706,2.755 -3.293,5.542 -4.767,8.358 -1.476,2.819 -2.87,5.737 -4.181,8.753 -0.591,1.376 -1.214,3.016 -1.87,4.916 -0.655,1.902 -1.129,3.852 -1.425,5.851 -0.296,2.001 -0.261,3.917 0.1,5.753 0.357,1.836 1.293,3.344 2.801,4.524 0.919,0.72 1.951,1.212 3.1,1.476 1.145,0.261 2.309,0.325 3.49,0.195 1.181,-0.133 2.325,-0.412 3.44,-0.836 1.115,-0.428 2.165,-0.935 3.148,-1.524 1.505,-0.984 2.85,-2.198 4.029,-3.638 1.181,-1.442 2.097,-3.017 2.754,-4.722 0.262,-0.654 0.427,-1.359 0.491,-2.114 0.065,-0.753 0.147,-1.49 0.246,-2.212 0.101,-0.721 0.23,-1.441 0.395,-2.162 0.163,-0.722 0.443,-1.343 0.835,-1.87 0.919,-1.112 2.083,-1.703 3.492,-1.769 1.41,-0.064 2.571,0.426 3.491,1.476 0.718,0.784 1.18,1.785 1.375,2.998 0.195,1.213 0.262,2.346 0.195,3.394 -0.261,3.734 -1.57,7.029 -3.933,9.882 -2.358,2.851 -5.277,4.932 -8.75,6.244 -2.559,0.917 -5.358,1.458 -8.409,1.622 -3.047,0.163 -5.982,-0.148 -8.799,-0.934 -2.82,-0.787 -5.343,-2.082 -7.572,-3.886 -2.231,-1.802 -3.771,-4.244 -4.622,-7.324 -0.328,-1.116 -0.559,-2.263 -0.69,-3.442 -0.129,-1.179 -0.163,-2.36 -0.096,-3.539 -0.92,1.312 -1.937,2.59 -3.049,3.835 -1.114,1.245 -2.427,2.195 -3.934,2.851 -1.443,0.591 -2.819,0.705 -4.131,0.346 -1.313,-0.36 -2.522,-0.983 -3.636,-1.868 -1.118,-0.887 -2.102,-1.95 -2.95,-3.196 -0.853,-1.245 -1.542,-2.459 -2.066,-3.64 -1.181,-2.753 -1.722,-5.439 -1.621,-8.063 0.096,-2.621 0.606,-5.31 1.523,-8.063 0.72,-2.294 1.653,-4.425 2.802,-6.391 1.146,-1.968 2.539,-3.804 4.18,-5.509 1.243,-1.375 2.688,-2.539 4.326,-3.489 1.638,-0.952 3.359,-1.624 5.163,-2.018 1.802,-0.393 3.62,-0.491 5.455,-0.294 1.836,0.196 3.607,0.786 5.313,1.77 0.718,0.393 1.341,0.968 1.866,1.721 0.524,0.755 0.983,1.591 1.377,2.508 0.59,-1.113 1.293,-2.096 2.115,-2.949 0.818,-0.851 1.851,-1.41 3.096,-1.674 1.182,-0.196 2.277,-0.063 3.296,0.395 1.014,0.46 1.818,1.132 2.408,2.017 0.592,0.885 0.934,1.884 1.033,2.998 0.1,1.114 -0.176,2.195 -0.834,3.243 z m -14.159,0.886 c 0,-0.919 -0.115,-1.819 -0.346,-2.705 -0.23,-0.885 -0.672,-1.525 -1.326,-1.919 -1.117,-0.652 -2.327,-0.491 -3.639,0.492 -1.311,0.983 -2.573,2.246 -3.785,3.787 -1.215,1.541 -2.297,3.131 -3.246,4.769 -0.95,1.639 -1.589,2.787 -1.917,3.442 -0.723,1.376 -1.492,3.146 -2.313,5.31 -0.817,2.163 -1.44,4.262 -1.866,6.292 -0.427,2.034 -0.592,3.803 -0.492,5.311 0.098,1.51 0.738,2.328 1.916,2.459 1.115,0.133 2.131,-0.229 3.052,-1.082 0.915,-0.851 1.702,-1.671 2.358,-2.459 1.244,-1.508 2.457,-3.275 3.637,-5.309 1.182,-2.03 2.278,-4.131 3.296,-6.295 1.014,-2.163 1.918,-4.292 2.704,-6.392 0.788,-2.097 1.442,-3.996 1.967,-5.701 z"
           id="path40"
           inkscape:connector-curvature="0" /></g><g
         id="g58"><path
           fill="#FFFFFF"
           d="m 328.327,478.294 c 0,-2.221 -0.545,-4.017 -1.632,-5.388 -1.089,-1.372 -2.57,-2.491 -4.441,-3.363 -1.872,-0.87 -3.972,-1.576 -6.302,-2.123 -2.33,-0.543 -4.778,-1.077 -7.346,-1.6 -3.396,-0.74 -6.64,-1.621 -9.729,-2.645 -3.092,-1.021 -5.813,-2.437 -8.163,-4.245 -2.351,-1.804 -4.224,-4.101 -5.616,-6.889 -1.395,-2.784 -2.09,-6.269 -2.09,-10.447 0,-4.613 0.804,-8.629 2.416,-12.048 1.609,-3.417 3.798,-6.246 6.563,-8.488 2.763,-2.242 6.007,-3.919 9.729,-5.028 3.722,-1.11 7.911,-1.666 12.57,-1.666 4.657,0 9.338,0.457 14.04,1.371 4.702,0.914 8.75,2.09 12.146,3.527 v 13.713 c -4.529,-1.784 -8.869,-3.08 -13.027,-3.886 -4.158,-0.805 -8.064,-1.209 -11.721,-1.209 -5.268,0 -9.326,0.958 -12.178,2.875 -2.853,1.916 -4.278,4.788 -4.278,8.618 0,2.221 0.469,4.049 1.405,5.486 0.935,1.437 2.208,2.622 3.82,3.558 1.609,0.938 3.46,1.688 5.55,2.253 2.09,0.567 4.311,1.09 6.661,1.567 3.699,0.783 7.237,1.688 10.612,2.71 3.374,1.023 6.367,2.449 8.979,4.277 2.612,1.828 4.679,4.211 6.203,7.15 1.523,2.938 2.286,6.693 2.286,11.264 0,4.702 -0.872,8.774 -2.612,12.212 -1.743,3.44 -4.212,6.279 -7.412,8.521 -3.2,2.243 -7.085,3.908 -11.656,4.995 -4.57,1.088 -9.578,1.633 -15.019,1.633 -4.746,0 -9.415,-0.469 -14.007,-1.404 -4.592,-0.936 -8.414,-2.253 -11.46,-3.95 V 486.13 c 4.31,1.872 8.51,3.231 12.604,4.081 4.09,0.849 8.314,1.273 12.668,1.273 2.523,0 5.005,-0.206 7.444,-0.621 2.438,-0.413 4.625,-1.119 6.563,-2.122 1.938,-1 3.493,-2.36 4.669,-4.081 1.174,-1.72 1.761,-3.842 1.761,-6.366 z"
           id="path44"
           inkscape:connector-curvature="0" /><path
           fill="#FFFFFF"
           d="m 412.561,481.102 h -32.903 l -8.558,22.267 h -17.044 l 34.675,-87.371 h 14.627 l 34.674,87.371 h -16.913 z m -16.582,-44.078 c -3.054,9.139 -5.781,16.777 -8.174,22.914 l -2.988,7.776 h 22.586 l -2.989,-7.776 c -2.366,-6.19 -5.093,-13.829 -8.173,-22.914 z"
           id="path46"
           inkscape:connector-curvature="0" /><path
           fill="#FFFFFF"
           d="m 466.437,415.997 v 73.984 h 40.877 v 13.387 h -56.876 v -87.371 z"
           id="path48"
           inkscape:connector-curvature="0" /><path
           fill="#FFFFFF"
           d="m 558.511,505.001 c -4.571,0 -8.686,-0.447 -12.342,-1.34 -3.657,-0.89 -6.88,-2.175 -9.666,-3.852 -2.786,-1.675 -5.158,-3.722 -7.117,-6.139 -1.959,-2.416 -3.526,-5.146 -4.701,-8.195 -0.959,-2.437 -1.644,-5.136 -2.057,-8.097 -0.413,-2.959 -0.62,-6.27 -0.62,-9.926 v -51.456 h 15.998 v 50.02 c 0,6.183 0.739,11.015 2.22,14.497 1.653,3.876 4.07,6.673 7.249,8.391 3.177,1.721 6.922,2.58 11.232,2.58 4.309,0 8.052,-0.859 11.23,-2.58 3.177,-1.718 5.593,-4.515 7.248,-8.391 1.479,-3.482 2.221,-8.314 2.221,-14.497 v -50.02 h 15.998 v 51.456 c 0,3.656 -0.207,6.967 -0.62,9.926 -0.413,2.961 -1.101,5.66 -2.057,8.097 -1.177,3.049 -2.754,5.779 -4.734,8.195 -1.98,2.417 -4.397,4.464 -7.249,6.139 -2.852,1.677 -6.128,2.962 -9.827,3.852 -3.701,0.893 -7.836,1.34 -12.406,1.34 z"
           id="path50"
           inkscape:connector-curvature="0" /><path
           fill="#FFFFFF"
           d="m 651.692,503.368 h -15.998 v -73.984 h -28.21 v -13.387 h 72.354 v 13.387 h -28.146 z"
           id="path52"
           inkscape:connector-curvature="0" /><path
           fill="#FFFFFF"
           d="m 735.8,451.977 h 40.485 v -35.979 h 15.999 v 87.371 H 776.285 V 465.364 H 735.8 v 38.005 H 719.801 V 415.998 H 735.8 Z"
           id="path54"
           inkscape:connector-curvature="0" /><path
           fill="#FFFFFF"
           d="m 813.18,503.368 v -87.371 h 15.999 v 87.371 z"
           id="path56"
           inkscape:connector-curvature="0" /></g></g></g></svg>