<?xml version="1.0" encoding="utf-8"?>
<!-- Generator: Adobe Illustrator 16.0.0, SVG Export Plug-In . SVG Version: 6.00 Build 0)  -->
<!DOCTYPE svg PUBLIC "-//W3C//DTD SVG 1.1//EN" "http://www.w3.org/Graphics/SVG/1.1/DTD/svg11.dtd">
<svg version="1.1" id="Layer_1" xmlns="http://www.w3.org/2000/svg" xmlns:xlink="http://www.w3.org/1999/xlink" x="0px" y="0px"
	 width="500px" height="500px" viewBox="0 0 500 500" enable-background="new 0 0 500 500" xml:space="preserve">
<path d="M336.931,160.263l-36.109-43.464V87.711L257.356,5.798c-2.677-6.02-2.677-6.02-7.356-6.02c-5.351,0-4.68,0-7.354,6.02
	L199.18,87.711v29.088l-36.108,43.464v16.048h173.859V160.263z M344.286,193.029H155.715c-13.706,0-14.376,0-14.376,14.376v171.852
	c0,13.708,0.67,14.378,14.376,14.378h188.571c14.375,0,14.375-0.67,14.375-14.378V207.405
	C358.661,193.029,358.661,193.029,344.286,193.029z M303.83,346.158c-13.374,13.709-32.433,22.066-53.161,22.066
	c-20.729,0-39.788-8.357-53.495-22.066c-13.372-14.045-21.731-32.433-21.731-53.16c0-20.396,8.359-39.455,21.731-53.162
	c13.707-13.374,32.766-22.064,53.495-22.064c20.729,0,39.787,8.69,53.161,22.064c13.708,13.707,22.065,32.767,22.065,53.162
	C325.896,313.726,317.538,332.113,303.83,346.158z M257.69,239.168h-15.045v53.83c-0.334,7.355,0,7.355,7.69,7.355h43.13v-15.046
	H257.69V239.168z M164.409,484.24c0,13.707,0.671,14.377,14.711,14.377h141.764c14.709,0,14.709-0.67,14.709-14.377v-73.889H164.409
	V484.24z"/>
</svg>
