<?xml version="1.0" encoding="utf-8"?>
<!-- Generator: Adobe Illustrator 16.0.0, SVG Export Plug-In . SVG Version: 6.00 Build 0)  -->
<!DOCTYPE svg PUBLIC "-//W3C//DTD SVG 1.1//EN" "http://www.w3.org/Graphics/SVG/1.1/DTD/svg11.dtd">
<svg version="1.1" id="Layer_1" xmlns="http://www.w3.org/2000/svg" xmlns:xlink="http://www.w3.org/1999/xlink" x="0px" y="0px"
	 width="500px" height="500px" viewBox="0 0 500 500" enable-background="new 0 0 500 500" xml:space="preserve">
<path d="M224.957,366.975l12.688-59.435h25.044l12.354,59.435h43.742c-24.709-63.775-43.742-127.884-47.08-250.427
	c11.687-0.334,11.687-1.67,11.687-16.695V83.157c0-15.026,0-16.695-12.356-16.695h-12.686V8.029c0-8.348,0-8.348-8.349-8.348
	c-8.348,0-8.348,0-8.348,8.348v58.433h-12.355c-12.688,0-12.688,1.335-12.688,16.695v16.696c0,15.025,0,16.36,12.021,16.695
	c-3.338,122.543-22.371,186.652-47.415,250.427H224.957z M384.563,489.85c-23.375-36.061-40.069-68.115-57.097-106.181H172.2
	c-16.694,38.065-33.39,70.12-56.763,106.181c-7.012,10.687-7.012,10.687,3.672,10.687h58.433c9.351,0,9.351,0,10.018-10.017
	c4.008-42.407,33.391-56.765,62.44-56.765s58.433,14.357,62.44,56.765c0.667,10.017,0.667,10.017,10.018,10.017h58.433
	C391.575,500.536,391.575,500.536,384.563,489.85z"/>
</svg>
